<svg data-v-fde0c5aa="" xmlns="http://www.w3.org/2000/svg" viewBox="0 0 300 300" class="iconLeftSlogan"><!----><defs data-v-fde0c5aa=""><!----></defs><rect data-v-fde0c5aa="" fill="#E1F3FC" x="0" y="0" width="300px" height="300px" class="logo-background-square"></rect><defs data-v-fde0c5aa=""><!----></defs><g data-v-fde0c5aa="" id="deffc52e-aca8-47c7-bdb9-a0133c035dd9" fill="#012B3D" transform="matrix(1.9476571793939643,0,0,1.9476571793939643,110.22515807528451,123.63967950734764)"><path d="M3.63 13.30C6.33 13.30 8.53 11.12 8.53 8.41C8.53 5.71 6.33 3.50 3.63 3.50L1.83 3.50L1.79 3.50C1.61 3.50 1.46 3.65 1.46 3.84L1.46 12.96C1.46 13.15 1.60 13.29 1.76 13.30L1.82 13.30ZM2.14 12.61L2.14 4.19L3.63 4.19C5.95 4.20 7.84 6.08 7.84 8.41C7.84 10.74 5.95 12.61 3.63 12.61ZM15.53 6.44C15.34 6.44 15.19 6.58 15.19 6.78L15.19 7.78C14.60 6.97 13.66 6.44 12.61 6.44C10.81 6.44 9.37 7.99 9.37 9.87C9.37 11.75 10.81 13.30 12.61 13.30C13.66 13.30 14.60 12.75 15.19 11.94L15.19 12.96C15.19 13.15 15.34 13.30 15.53 13.30C15.71 13.30 15.86 13.15 15.86 12.96L15.86 6.78C15.86 6.58 15.71 6.44 15.53 6.44ZM12.61 12.63C11.21 12.63 10.04 11.41 10.04 9.87C10.04 8.33 11.21 7.10 12.61 7.10C14.03 7.10 15.19 8.33 15.19 9.87C15.19 11.41 14.03 12.63 12.61 12.63ZM20.76 13.27C20.78 13.29 20.78 13.29 20.79 13.29C20.83 13.30 20.86 13.30 20.90 13.30C20.97 13.30 21.07 13.27 21.13 13.20C21.17 13.15 21.20 13.09 21.21 13.03L23.77 6.96C23.84 6.79 23.77 6.59 23.60 6.52C23.44 6.45 23.23 6.54 23.17 6.71L20.89 12.11L18.61 6.71C18.55 6.54 18.34 6.45 18.17 6.52C18.02 6.59 17.93 6.79 18.00 6.96L20.58 13.09C20.61 13.16 20.65 13.20 20.69 13.24C20.72 13.26 20.73 13.27 20.76 13.27ZM26.66 12.96L26.66 12.96C26.66 13.15 26.81 13.30 26.99 13.30L26.99 13.30C27.19 13.30 27.34 13.15 27.34 12.96L27.34 6.78L27.34 6.78C27.34 6.58 27.19 6.44 26.99 6.44L26.99 6.44C26.81 6.44 26.66 6.58 26.66 6.78ZM26.66 4.86L26.66 4.86C26.66 5.05 26.81 5.22 26.99 5.22L26.99 5.22C27.19 5.22 27.34 5.05 27.34 4.86L27.34 4.54L27.34 4.54C27.34 4.35 27.19 4.20 26.99 4.20L26.99 4.20C26.81 4.20 26.66 4.35 26.66 4.54ZM36.06 12.96C36.06 13.15 36.22 13.30 36.41 13.30C36.60 13.30 36.75 13.15 36.75 12.96L36.75 9.88L36.75 9.74L36.75 3.84C36.75 3.65 36.60 3.50 36.41 3.50C36.22 3.50 36.06 3.65 36.06 3.84L36.06 7.78C35.46 6.97 34.51 6.44 33.43 6.44C31.58 6.44 30.11 7.98 30.11 9.88C30.11 11.76 31.58 13.30 33.43 13.30C34.51 13.30 35.46 12.78 36.06 11.97ZM33.43 12.61C31.99 12.61 30.80 11.40 30.80 9.88C30.80 8.36 31.99 7.13 33.43 7.13C34.85 7.13 36.01 8.30 36.06 9.77L36.06 10.00C36.01 11.45 34.85 12.61 33.43 12.61ZM44.17 12.96C44.17 13.15 44.31 13.29 44.48 13.30L44.51 13.30L44.55 13.30L49.55 13.30C49.74 13.30 49.88 13.15 49.88 12.96C49.88 12.77 49.74 12.61 49.55 12.61L44.86 12.61L44.86 8.75L48.96 8.75C49.14 8.75 49.29 8.60 49.29 8.41C49.29 8.22 49.14 8.06 48.96 8.06L44.86 8.06L44.86 4.19L49.55 4.19C49.74 4.19 49.88 4.03 49.88 3.84C49.88 3.65 49.74 3.50 49.55 3.50L44.53 3.50L44.51 3.50C44.32 3.50 44.17 3.65 44.17 3.84L44.17 12.96ZM52.12 13.23C52.19 13.27 52.26 13.30 52.32 13.30C52.42 13.30 52.53 13.26 52.58 13.16L54.57 10.46L56.55 13.16C56.60 13.26 56.71 13.30 56.83 13.30C56.88 13.30 56.95 13.27 56.99 13.23C57.16 13.12 57.19 12.92 57.09 12.77L54.98 9.90L57.09 7.01C57.19 6.85 57.16 6.65 56.99 6.54C56.87 6.44 56.66 6.47 56.55 6.62L54.57 9.32L52.58 6.62C52.49 6.47 52.26 6.44 52.12 6.54C51.98 6.65 51.95 6.85 52.05 7.01L54.15 9.90L52.05 12.77C51.95 12.92 51.98 13.12 52.12 13.23ZM62.85 13.30L62.85 13.30C62.85 13.30 62.85 13.30 62.85 13.30L62.85 13.30C63.66 13.30 64.43 13.02 65.00 12.57L65.00 12.57C65.17 12.45 65.20 12.24 65.07 12.08L65.07 12.08C64.96 11.96 64.76 11.91 64.61 12.03L64.61 12.03L64.61 12.03C64.12 12.40 63.50 12.63 62.85 12.63L62.85 12.63C61.25 12.63 59.99 11.40 59.99 9.86L59.99 9.86C59.99 8.34 61.25 7.10 62.85 7.10L62.85 7.10C63.50 7.10 64.12 7.32 64.61 7.71L64.61 7.71C64.76 7.83 64.96 7.78 65.07 7.66L65.07 7.66C65.20 7.50 65.17 7.29 65.03 7.20L65.03 7.20C64.43 6.72 63.66 6.44 62.85 6.44L62.85 6.44C60.89 6.44 59.32 7.95 59.32 9.86L59.32 9.86C59.32 11.79 60.89 13.30 62.85 13.30ZM70.43 13.30C71.60 13.30 72.62 12.68 73.21 11.75C73.30 11.58 73.25 11.38 73.09 11.27C72.95 11.19 72.74 11.21 72.65 11.38C72.18 12.15 71.34 12.63 70.43 12.63C69.02 12.63 67.84 11.49 67.77 10.00L73.40 10.00C73.58 10.00 73.74 9.87 73.74 9.69L73.74 9.65L73.74 9.63C73.60 7.84 72.20 6.44 70.43 6.44C68.59 6.44 67.10 7.98 67.10 9.88C67.10 11.76 68.59 13.30 70.43 13.30ZM70.43 7.11C71.69 7.11 72.79 8.05 73.01 9.34L67.82 9.34C68.07 8.04 69.15 7.11 70.43 7.11ZM76.22 12.96L76.22 12.96C76.22 13.15 76.37 13.30 76.55 13.30L76.55 13.30C76.75 13.30 76.90 13.15 76.90 12.96L76.90 3.84L76.90 3.84C76.90 3.65 76.75 3.50 76.55 3.50L76.55 3.50C76.37 3.50 76.22 3.65 76.22 3.84L76.22 12.96Z"></path></g><defs data-v-fde0c5aa=""><linearGradient data-v-fde0c5aa="" gradientTransform="rotate(25)" id="62620814-78cf-4591-a548-c30ecbcf3177" x1="0%" y1="0%" x2="100%" y2="0%"><stop data-v-fde0c5aa="" offset="0%" stop-color="#0076DD" stop-opacity="1"></stop><stop data-v-fde0c5aa="" offset="100%" stop-color="#00CDE9" stop-opacity="1"></stop></linearGradient></defs><g data-v-fde0c5aa="" id="097e03ea-f365-420f-96a0-21e3c5ea92c5" stroke="none" fill="url(#62620814-78cf-4591-a548-c30ecbcf3177)" transform="matrix(0.6006773399733056,0,0,0.6006773399733056,40.000333428880296,129.115649308916)"><path d="M13.038 49.979H86.92a2.173 2.173 0 002.173-2.173V2.173C89.093.973 88.121 0 86.92 0H13.038a2.173 2.173 0 00-2.173 2.173v45.633c0 1.2.972 2.173 2.173 2.173zm2.173-45.633h69.536v41.287H15.211V4.346zM99.228 65.701L88.59 52.934a2.177 2.177 0 00-1.67-.782H13.038c-.645 0-1.256.286-1.67.782L.503 65.972a2.173 2.173 0 001.67 3.564h95.654a2.173 2.173 0 001.401-3.835zM6.812 65.19l7.245-8.692h71.844l7.245 8.692H6.812z"></path><path d="M35.374 43.052H22.86a2.085 2.085 0 01-2.086-2.086V34.71c0-1.153.933-2.086 2.086-2.086h12.513c1.153 0 2.086.933 2.086 2.086v6.257a2.084 2.084 0 01-2.085 2.085zm-10.428-4.171h8.342v-2.086h-8.342v2.086zM56.229 43.052H43.716a2.085 2.085 0 01-2.086-2.086V34.71c0-1.153.933-2.086 2.086-2.086h12.513c1.153 0 2.086.933 2.086 2.086v6.257a2.085 2.085 0 01-2.086 2.085zm-10.428-4.171h8.342v-2.086h-8.342v2.086zM77.084 43.052H64.571a2.085 2.085 0 01-2.086-2.086V34.71c0-1.153.933-2.086 2.086-2.086h12.513c1.153 0 2.086.933 2.086 2.086v6.257a2.085 2.085 0 01-2.086 2.085zm-10.427-4.171h8.342v-2.086h-8.342v2.086zM77.084 30.539H64.571a2.085 2.085 0 01-2.086-2.086v-6.257c0-1.153.933-2.086 2.086-2.086h12.513c1.153 0 2.086.933 2.086 2.086v6.257a2.085 2.085 0 01-2.086 2.086zm-10.427-4.171h8.342v-2.086h-8.342v2.086zM77.084 18.026H64.571a2.085 2.085 0 01-2.086-2.086V9.683c0-1.153.933-2.086 2.086-2.086h12.513c1.153 0 2.086.933 2.086 2.086v6.257a2.085 2.085 0 01-2.086 2.086zm-10.427-4.172h8.342v-2.086h-8.342v2.086zM49.253 30.539a2.175 2.175 0 01-1.541-.638L29.589 11.778a2.18 2.18 0 013.082-3.082l18.123 18.123a2.18 2.18 0 01-1.541 3.72z"></path><path d="M31.13 30.539a2.18 2.18 0 01-1.541-3.72L47.712 8.696a2.18 2.18 0 013.082 3.082L32.671 29.9a2.17 2.17 0 01-1.541.639z"></path><path d="M37.92 30.539h-6.79a2.178 2.178 0 01-2.179-2.179c0-1.205.975-2.179 2.179-2.179h6.789c1.205 0 2.179.975 2.179 2.179a2.177 2.177 0 01-2.178 2.179z"></path></g><defs data-v-fde0c5aa=""><!----></defs><g data-v-fde0c5aa="" id="16ae75af-f1b2-458d-9fdd-2b2ca8a99c0b" fill="#012B3D" transform="matrix(0.3084782245210551,0,0,0.3084782245210551,112.9823637282633,158.5162879006534)"><path d="M0.28 3.65L0.28 3.65Q0.28 3.46 0.67 3.46L0.67 3.46Q0.73 3.46 0.85 3.47Q0.98 3.49 1.05 3.49L1.05 3.49Q1.09 3.49 2.37 3.52Q3.64 3.56 4.47 3.56L4.47 3.56Q4.76 3.56 5.92 3.53Q7.07 3.50 7.27 3.50L7.27 3.50Q7.53 3.50 7.53 3.82L7.53 3.82Q7.53 3.91 7.45 4.38Q7.36 4.84 7.36 5.25L7.36 5.25Q7.36 5.38 7.29 5.47Q7.22 5.56 7.14 5.56L7.14 5.56Q6.93 5.56 6.93 5.26L6.93 5.26Q6.93 4.89 6.69 4.58Q6.45 4.27 6.10 4.26L6.10 4.26Q4.84 4.16 4.17 4.16L4.17 4.16L3.81 4.16Q3.08 4.16 2.96 4.26Q2.84 4.37 2.81 5.01L2.81 5.01Q2.76 6.02 2.76 7.35L2.76 7.35Q2.76 8.05 3.02 8.06L3.02 8.06L3.37 8.06L3.96 8.06L4.40 8.06Q5.24 8.06 5.52 8.01Q5.80 7.95 6.02 7.80L6.02 7.80Q6.29 7.62 6.34 7.28L6.34 7.28Q6.38 7.04 6.54 7.04L6.54 7.04Q6.66 7.04 6.69 7.08Q6.72 7.13 6.72 7.27L6.72 7.27Q6.72 7.36 6.66 7.91Q6.61 8.46 6.61 8.74L6.61 8.74Q6.61 9.00 6.63 9.24Q6.65 9.48 6.65 9.59L6.65 9.59Q6.65 9.94 6.55 9.94L6.55 9.94Q6.34 9.94 6.24 9.60L6.24 9.60Q6.05 9.02 5.89 8.92L5.89 8.92Q5.60 8.72 4.55 8.72L4.55 8.72Q4.13 8.72 3.87 8.72Q3.61 8.72 3.54 8.71Q3.46 8.71 3.41 8.71Q3.36 8.71 3.32 8.71L3.32 8.71Q2.74 8.71 2.74 8.97L2.74 8.97Q2.74 9.38 2.73 9.99Q2.72 10.60 2.72 10.99L2.72 10.99L2.72 11.55Q2.72 12.56 3.05 12.66L3.05 12.66Q3.40 12.77 3.65 12.77L3.65 12.77Q4.70 12.77 5.50 12.67Q6.29 12.57 6.69 12.42Q7.08 12.28 7.35 12.10Q7.62 11.93 7.69 11.78Q7.77 11.63 7.85 11.54Q7.92 11.44 8.01 11.44L8.01 11.44Q8.18 11.44 8.18 11.68L8.18 11.68Q8.18 12.28 7.57 12.89Q6.97 13.51 6.52 13.51L6.52 13.51Q5.52 13.51 4.25 13.44Q2.98 13.37 2.67 13.37L2.67 13.37Q2.28 13.37 1.69 13.43Q1.11 13.50 0.77 13.50L0.77 13.50Q0.48 13.50 0.48 13.36L0.48 13.36Q0.48 13.23 0.48 13.19Q0.48 13.15 0.52 13.12Q0.56 13.09 0.61 13.08Q0.66 13.08 0.79 13.03Q0.92 12.99 1.08 12.92L1.08 12.92Q1.41 12.75 1.52 12.26Q1.62 11.77 1.62 10.21L1.62 10.21L1.62 8.47Q1.62 8.09 1.65 7.29Q1.67 6.50 1.67 6.05L1.67 6.05Q1.67 5.67 1.64 4.77L1.64 4.77Q1.62 4.37 1.29 4.14Q0.95 3.92 0.50 3.91L0.50 3.91Q0.28 3.91 0.28 3.65ZM15.74 3.63L15.74 3.63Q15.74 3.51 15.83 3.48Q15.93 3.44 16.32 3.44L16.32 3.44Q16.59 3.44 16.86 3.47Q17.12 3.50 17.57 3.50L17.57 3.50Q17.65 3.50 18.32 3.49Q18.98 3.47 19.04 3.47L19.04 3.47Q19.35 3.47 19.35 3.60Q19.35 3.72 19.25 3.78Q19.15 3.84 19.03 3.84Q18.91 3.85 18.82 3.92Q18.72 3.99 18.72 4.14L18.72 4.14Q18.72 4.41 19.47 5.50L19.47 5.50Q20.61 7.22 20.75 7.36L20.75 7.36Q20.83 7.45 20.87 7.45L20.87 7.45Q20.99 7.45 21.20 7.14L21.20 7.14Q21.32 6.96 21.60 6.56Q21.88 6.16 22.10 5.84Q22.32 5.53 22.55 5.19Q22.78 4.84 22.91 4.61Q23.04 4.37 23.04 4.27L23.04 4.27Q23.04 4.05 22.93 3.94Q22.81 3.84 22.67 3.82Q22.54 3.81 22.42 3.76Q22.30 3.71 22.30 3.58L22.30 3.58Q22.30 3.44 22.51 3.44L22.51 3.44Q22.82 3.44 23.11 3.47Q23.41 3.50 23.65 3.50L23.65 3.50Q24.43 3.50 24.67 3.47Q24.92 3.44 24.96 3.44L24.96 3.44Q25.19 3.44 25.19 3.58Q25.19 3.72 25.06 3.77Q24.93 3.82 24.65 3.92Q24.37 4.02 24.14 4.19L24.14 4.19Q23.87 4.37 23.39 5.01L23.39 5.01Q21.22 7.92 21.22 7.95L21.22 7.95Q21.22 8.05 21.73 8.76L21.73 8.76Q22.39 9.70 22.99 10.57L22.99 10.57Q24.28 12.45 24.81 12.88L24.81 12.88Q24.85 12.92 25.08 12.96Q25.31 13.01 25.50 13.08Q25.69 13.15 25.69 13.26L25.69 13.26Q25.69 13.33 25.67 13.36Q25.65 13.40 25.54 13.43Q25.44 13.45 25.24 13.45L25.24 13.45Q24.98 13.45 24.38 13.40Q23.79 13.36 23.74 13.36L23.74 13.36Q23.34 13.36 23.02 13.38Q22.71 13.40 22.54 13.42Q22.37 13.44 22.32 13.44L22.32 13.44Q22.13 13.44 22.13 13.26L22.13 13.26Q22.13 13.09 22.49 13.01Q22.85 12.92 22.85 12.66L22.85 12.66Q22.85 12.56 22.76 12.38Q22.67 12.19 22.46 11.86Q22.25 11.52 22.03 11.21Q21.81 10.89 21.40 10.29Q20.99 9.69 20.66 9.20L20.66 9.20Q20.52 8.96 20.43 8.96L20.43 8.96Q20.40 8.96 20.13 9.39L20.13 9.39Q19.82 9.88 19.24 10.66Q18.66 11.44 18.37 11.91Q18.07 12.39 18.07 12.67L18.07 12.67Q18.07 13.05 18.83 13.05L18.83 13.05Q19.00 13.05 19.00 13.29L19.00 13.29Q19.00 13.44 18.56 13.44L18.56 13.44Q18.42 13.44 17.90 13.42Q17.37 13.40 17.33 13.40L17.33 13.40Q17.21 13.40 16.79 13.43Q16.37 13.45 16.21 13.45Q16.06 13.45 15.99 13.44Q15.92 13.43 15.86 13.37Q15.81 13.31 15.81 13.19L15.81 13.19Q15.81 13.09 15.89 13.05Q15.97 13.02 16.09 13.01Q16.21 13.01 16.41 12.94Q16.62 12.87 16.80 12.73L16.80 12.73Q16.94 12.61 17.10 12.46Q17.26 12.31 17.44 12.09Q17.61 11.87 17.75 11.70Q17.89 11.54 18.10 11.25Q18.31 10.96 18.42 10.81Q18.52 10.67 18.75 10.34Q18.98 10.01 19.07 9.90L19.07 9.90Q19.28 9.60 19.57 9.22Q19.87 8.83 19.98 8.67Q20.10 8.50 20.10 8.46Q20.10 8.41 20.05 8.32Q19.99 8.23 19.84 8.02Q19.68 7.80 19.49 7.54Q19.31 7.28 18.94 6.78Q18.58 6.27 18.20 5.73L18.20 5.73Q17.08 4.07 16.30 3.91L16.30 3.91Q16.27 3.91 16.14 3.88Q16.02 3.86 15.95 3.84Q15.88 3.82 15.81 3.77Q15.74 3.71 15.74 3.63ZM33.18 8.90L33.18 8.90Q33.18 7.38 33.77 6.16Q34.36 4.94 35.58 4.19Q36.81 3.44 38.49 3.44L38.49 3.44Q39.34 3.44 40.21 3.70Q41.08 3.95 41.59 4.20L41.59 4.20L42.11 4.47Q42.15 4.47 42.25 4.40Q42.35 4.33 42.41 4.33L42.41 4.33Q42.48 4.33 42.55 4.38Q42.62 4.44 42.62 4.55L42.62 4.55Q42.63 4.96 42.68 5.41Q42.73 5.87 42.77 6.16Q42.81 6.45 42.81 6.51L42.81 6.51Q42.81 6.76 42.64 6.76L42.64 6.76Q42.52 6.76 42.41 6.57L42.41 6.57Q41.05 4.02 38.49 4.02L38.49 4.02Q36.74 4.02 35.62 5.14Q34.50 6.26 34.50 8.06L34.50 8.06Q34.50 9.06 34.76 9.93Q35.01 10.79 35.54 11.51Q36.06 12.24 36.99 12.66Q37.91 13.08 39.14 13.08L39.14 13.08Q41.16 13.08 42.53 10.98L42.53 10.98Q42.59 10.88 42.74 10.88L42.74 10.88Q42.87 10.88 42.87 11.07L42.87 11.07Q42.87 11.23 42.82 11.49Q42.77 11.75 42.70 12.06Q42.63 12.38 42.62 12.45L42.62 12.45Q42.59 12.60 42.39 12.70L42.39 12.70Q41.64 13.06 41.21 13.24Q40.78 13.43 40.12 13.57Q39.47 13.72 38.78 13.72L38.78 13.72Q37.56 13.72 36.58 13.43Q35.60 13.13 34.98 12.66Q34.36 12.18 33.94 11.54Q33.52 10.91 33.35 10.25Q33.18 9.60 33.18 8.90ZM51.14 3.65L51.14 3.65Q51.14 3.46 51.53 3.46L51.53 3.46Q51.59 3.46 51.72 3.47Q51.84 3.49 51.91 3.49L51.91 3.49Q51.95 3.49 53.23 3.52Q54.50 3.56 55.33 3.56L55.33 3.56Q55.62 3.56 56.78 3.53Q57.93 3.50 58.13 3.50L58.13 3.50Q58.39 3.50 58.39 3.82L58.39 3.82Q58.39 3.91 58.31 4.38Q58.23 4.84 58.23 5.25L58.23 5.25Q58.23 5.38 58.16 5.47Q58.09 5.56 58.00 5.56L58.00 5.56Q57.79 5.56 57.79 5.26L57.79 5.26Q57.79 4.89 57.55 4.58Q57.32 4.27 56.97 4.26L56.97 4.26Q55.71 4.16 55.03 4.16L55.03 4.16L54.67 4.16Q53.94 4.16 53.82 4.26Q53.70 4.37 53.68 5.01L53.68 5.01Q53.62 6.02 53.62 7.35L53.62 7.35Q53.62 8.05 53.89 8.06L53.89 8.06L54.24 8.06L54.82 8.06L55.26 8.06Q56.10 8.06 56.38 8.01Q56.66 7.95 56.88 7.80L56.88 7.80Q57.15 7.62 57.20 7.28L57.20 7.28Q57.25 7.04 57.40 7.04L57.40 7.04Q57.53 7.04 57.55 7.08Q57.58 7.13 57.58 7.27L57.58 7.27Q57.58 7.36 57.53 7.91Q57.47 8.46 57.47 8.74L57.47 8.74Q57.47 9.00 57.49 9.24Q57.51 9.48 57.51 9.59L57.51 9.59Q57.51 9.94 57.41 9.94L57.41 9.94Q57.20 9.94 57.11 9.60L57.11 9.60Q56.91 9.02 56.76 8.92L56.76 8.92Q56.46 8.72 55.41 8.72L55.41 8.72Q54.99 8.72 54.73 8.72Q54.47 8.72 54.40 8.71Q54.32 8.71 54.27 8.71Q54.22 8.71 54.18 8.71L54.18 8.71Q53.61 8.71 53.61 8.97L53.61 8.97Q53.61 9.38 53.59 9.99Q53.58 10.60 53.58 10.99L53.58 10.99L53.58 11.55Q53.58 12.56 53.91 12.66L53.91 12.66Q54.26 12.77 54.52 12.77L54.52 12.77Q55.57 12.77 56.36 12.67Q57.15 12.57 57.55 12.42Q57.95 12.28 58.21 12.10Q58.48 11.93 58.55 11.78Q58.63 11.63 58.71 11.54Q58.79 11.44 58.87 11.44L58.87 11.44Q59.04 11.44 59.04 11.68L59.04 11.68Q59.04 12.28 58.44 12.89Q57.83 13.51 57.39 13.51L57.39 13.51Q56.38 13.51 55.11 13.44Q53.84 13.37 53.54 13.37L53.54 13.37Q53.14 13.37 52.56 13.43Q51.97 13.50 51.63 13.50L51.63 13.50Q51.34 13.50 51.34 13.36L51.34 13.36Q51.34 13.23 51.34 13.19Q51.34 13.15 51.38 13.12Q51.42 13.09 51.47 13.08Q51.52 13.08 51.65 13.03Q51.79 12.99 51.94 12.92L51.94 12.92Q52.28 12.75 52.38 12.26Q52.49 11.77 52.49 10.21L52.49 10.21L52.49 8.47Q52.49 8.09 52.51 7.29Q52.53 6.50 52.53 6.05L52.53 6.05Q52.53 5.67 52.50 4.77L52.50 4.77Q52.49 4.37 52.15 4.14Q51.81 3.92 51.37 3.91L51.37 3.91Q51.14 3.91 51.14 3.65ZM66.60 3.71L66.60 3.71Q66.60 3.46 66.98 3.46L66.98 3.46Q67.03 3.46 67.16 3.47Q67.28 3.49 67.35 3.49L67.35 3.49Q67.49 3.49 67.88 3.51Q68.26 3.54 68.57 3.54L68.57 3.54Q69.01 3.54 69.50 3.51Q69.99 3.49 70.04 3.49L70.04 3.49Q70.28 3.49 70.28 3.63L70.28 3.63Q70.28 3.82 70.11 3.88Q69.94 3.95 69.74 3.97Q69.54 3.99 69.35 4.28Q69.16 4.56 69.13 5.14L69.13 5.14Q69.10 5.68 69.06 8.19Q69.02 10.70 69.02 10.99L69.02 10.99L69.02 11.55Q69.02 12.56 69.36 12.66L69.36 12.66Q69.71 12.77 69.96 12.77L69.96 12.77Q71.01 12.77 71.80 12.67Q72.59 12.57 72.99 12.42Q73.39 12.28 73.65 12.10Q73.92 11.93 74.00 11.78Q74.07 11.63 74.15 11.54Q74.23 11.44 74.31 11.44L74.31 11.44Q74.48 11.44 74.48 11.68L74.48 11.68Q74.48 12.28 73.88 12.89Q73.28 13.51 72.83 13.51L72.83 13.51Q71.82 13.51 70.55 13.44Q69.29 13.37 68.98 13.37L68.98 13.37Q68.59 13.37 68.08 13.43Q67.56 13.48 67.23 13.48L67.23 13.48Q66.82 13.48 66.82 13.31L66.82 13.31Q66.82 13.22 66.90 13.15Q66.98 13.09 67.05 13.09L67.05 13.09Q67.26 13.09 67.45 12.95L67.45 12.95Q67.70 12.75 67.82 12.23Q67.93 11.70 67.93 10.21L67.93 10.21L67.93 8.47Q67.93 8.09 67.95 7.29Q67.97 6.50 67.97 6.05L67.97 6.05Q67.97 5.67 67.94 4.77L67.94 4.77Q67.93 4.37 67.59 4.14Q67.26 3.92 66.81 3.91L66.81 3.91Q66.67 3.91 66.63 3.86Q66.60 3.81 66.60 3.71ZM82.04 3.71L82.04 3.71Q82.04 3.46 82.42 3.46L82.42 3.46Q82.47 3.46 82.60 3.47Q82.73 3.49 82.80 3.49L82.80 3.49Q82.94 3.49 83.32 3.51Q83.71 3.54 84.01 3.54L84.01 3.54Q84.45 3.54 84.94 3.51Q85.43 3.49 85.48 3.49L85.48 3.49Q85.72 3.49 85.72 3.63L85.72 3.63Q85.72 3.82 85.55 3.88Q85.39 3.95 85.18 3.97Q84.98 3.99 84.79 4.28Q84.60 4.56 84.57 5.14L84.57 5.14Q84.55 5.68 84.50 8.19Q84.46 10.70 84.46 10.99L84.46 10.99L84.46 11.55Q84.46 12.56 84.80 12.66L84.80 12.66Q85.15 12.77 85.40 12.77L85.40 12.77Q86.45 12.77 87.24 12.67Q88.03 12.57 88.43 12.42Q88.83 12.28 89.10 12.10Q89.36 11.93 89.44 11.78Q89.52 11.63 89.59 11.54Q89.67 11.44 89.75 11.44L89.75 11.44Q89.92 11.44 89.92 11.68L89.92 11.68Q89.92 12.28 89.32 12.89Q88.72 13.51 88.27 13.51L88.27 13.51Q87.26 13.51 85.99 13.44Q84.73 13.37 84.42 13.37L84.42 13.37Q84.03 13.37 83.52 13.43Q83.01 13.48 82.67 13.48L82.67 13.48Q82.26 13.48 82.26 13.31L82.26 13.31Q82.26 13.22 82.34 13.15Q82.42 13.09 82.49 13.09L82.49 13.09Q82.70 13.09 82.89 12.95L82.89 12.95Q83.15 12.75 83.26 12.23Q83.37 11.70 83.37 10.21L83.37 10.21L83.37 8.47Q83.37 8.09 83.39 7.29Q83.41 6.50 83.41 6.05L83.41 6.05Q83.41 5.67 83.38 4.77L83.38 4.77Q83.37 4.37 83.03 4.14Q82.70 3.92 82.25 3.91L82.25 3.91Q82.11 3.91 82.07 3.86Q82.04 3.81 82.04 3.71ZM97.48 3.65L97.48 3.65Q97.48 3.46 97.87 3.46L97.87 3.46Q97.93 3.46 98.06 3.47Q98.18 3.49 98.25 3.49L98.25 3.49Q98.29 3.49 99.57 3.52Q100.84 3.56 101.67 3.56L101.67 3.56Q101.96 3.56 103.12 3.53Q104.27 3.50 104.47 3.50L104.47 3.50Q104.73 3.50 104.73 3.82L104.73 3.82Q104.73 3.91 104.65 4.38Q104.57 4.84 104.57 5.25L104.57 5.25Q104.57 5.38 104.50 5.47Q104.43 5.56 104.34 5.56L104.34 5.56Q104.13 5.56 104.13 5.26L104.13 5.26Q104.13 4.89 103.89 4.58Q103.66 4.27 103.31 4.26L103.31 4.26Q102.05 4.16 101.37 4.16L101.37 4.16L101.01 4.16Q100.28 4.16 100.16 4.26Q100.04 4.37 100.02 5.01L100.02 5.01Q99.96 6.02 99.96 7.35L99.96 7.35Q99.96 8.05 100.23 8.06L100.23 8.06L100.58 8.06L101.16 8.06L101.60 8.06Q102.44 8.06 102.72 8.01Q103.00 7.95 103.22 7.80L103.22 7.80Q103.49 7.62 103.54 7.28L103.54 7.28Q103.59 7.04 103.74 7.04L103.74 7.04Q103.87 7.04 103.89 7.08Q103.92 7.13 103.92 7.27L103.92 7.27Q103.92 7.36 103.87 7.91Q103.81 8.46 103.81 8.74L103.81 8.74Q103.81 9.00 103.83 9.24Q103.85 9.48 103.85 9.59L103.85 9.59Q103.85 9.94 103.75 9.94L103.75 9.94Q103.54 9.94 103.45 9.60L103.45 9.60Q103.25 9.02 103.10 8.92L103.10 8.92Q102.80 8.72 101.75 8.72L101.75 8.72Q101.33 8.72 101.07 8.72Q100.81 8.72 100.74 8.71Q100.66 8.71 100.61 8.71Q100.56 8.71 100.52 8.71L100.52 8.71Q99.95 8.71 99.95 8.97L99.95 8.97Q99.95 9.38 99.93 9.99Q99.92 10.60 99.92 10.99L99.92 10.99L99.92 11.55Q99.92 12.56 100.25 12.66L100.25 12.66Q100.60 12.77 100.86 12.77L100.86 12.77Q101.91 12.77 102.70 12.67Q103.49 12.57 103.89 12.42Q104.29 12.28 104.55 12.10Q104.82 11.93 104.89 11.78Q104.97 11.63 105.05 11.54Q105.13 11.44 105.21 11.44L105.21 11.44Q105.38 11.44 105.38 11.68L105.38 11.68Q105.38 12.28 104.78 12.89Q104.17 13.51 103.73 13.51L103.73 13.51Q102.72 13.51 101.45 13.44Q100.18 13.37 99.88 13.37L99.88 13.37Q99.48 13.37 98.90 13.43Q98.31 13.50 97.97 13.50L97.97 13.50Q97.68 13.50 97.68 13.36L97.68 13.36Q97.68 13.23 97.68 13.19Q97.68 13.15 97.72 13.12Q97.76 13.09 97.81 13.08Q97.86 13.08 97.99 13.03Q98.13 12.99 98.28 12.92L98.28 12.92Q98.62 12.75 98.72 12.26Q98.83 11.77 98.83 10.21L98.83 10.21L98.83 8.47Q98.83 8.09 98.85 7.29Q98.87 6.50 98.87 6.05L98.87 6.05Q98.87 5.67 98.84 4.77L98.84 4.77Q98.83 4.37 98.49 4.14Q98.15 3.92 97.71 3.91L97.71 3.91Q97.48 3.91 97.48 3.65ZM112.94 3.77L112.94 3.77Q112.94 3.68 113.04 3.60Q113.13 3.53 113.29 3.53L113.29 3.53Q113.37 3.53 113.57 3.54Q113.76 3.54 113.82 3.54L113.82 3.54Q114.03 3.54 114.21 3.53Q114.39 3.51 114.51 3.51L114.51 3.51Q114.63 3.51 114.80 3.59Q114.97 3.67 115.00 3.75L115.00 3.75Q115.02 3.79 115.15 3.94Q115.28 4.09 115.49 4.33Q115.70 4.56 115.86 4.79L115.86 4.79Q117.77 7.27 120.96 10.77L120.96 10.77Q121.04 10.86 121.16 10.99Q121.28 11.12 121.33 11.18Q121.38 11.24 121.44 11.30Q121.49 11.35 121.53 11.38Q121.56 11.40 121.59 11.40L121.59 11.40Q121.73 11.40 121.73 10.53L121.73 10.53L121.73 8.89Q121.73 7.95 121.72 7.31Q121.72 6.66 121.71 6.38Q121.70 6.09 121.70 6.02L121.70 6.02L121.70 5.92Q121.70 5.45 121.64 5.11Q121.58 4.77 121.49 4.59Q121.41 4.41 121.25 4.28Q121.09 4.16 120.97 4.12Q120.86 4.09 120.65 4.05Q120.44 4.00 120.36 3.98L120.36 3.98Q120.08 3.89 120.08 3.74L120.08 3.74Q120.08 3.53 120.34 3.53L120.34 3.53Q120.43 3.53 121.02 3.54Q121.60 3.54 121.67 3.54L121.67 3.54Q122.01 3.54 122.42 3.53Q122.84 3.51 122.93 3.51L122.93 3.51Q123.17 3.51 123.26 3.56Q123.35 3.61 123.35 3.75L123.35 3.75Q123.35 3.81 123.28 3.86Q123.20 3.91 123.12 3.94Q123.03 3.98 122.95 4.00L122.95 4.00L122.86 4.03Q122.40 4.28 122.40 5.61L122.40 5.61L122.40 6.15Q122.40 7.21 122.33 9.83Q122.25 12.46 122.25 13.08L122.25 13.08L122.25 13.36Q122.25 13.68 122.05 13.68L122.05 13.68Q121.93 13.68 121.83 13.58L121.83 13.58Q117.18 8.19 116.28 7.17Q115.37 6.16 115.28 6.16L115.28 6.16Q115.14 6.16 115.14 7.11L115.14 7.11Q115.14 8.44 115.08 9.97Q115.02 11.51 115.02 11.65L115.02 11.65Q115.02 12.28 115.24 12.61Q115.46 12.94 115.71 12.98Q115.96 13.02 116.18 13.07Q116.40 13.12 116.40 13.26L116.40 13.26Q116.40 13.41 116.35 13.45Q116.30 13.50 116.17 13.50L116.17 13.50Q116.07 13.50 115.73 13.48Q115.39 13.47 114.67 13.47L114.67 13.47Q114.55 13.47 114.16 13.48Q113.76 13.50 113.48 13.50L113.48 13.50Q113.18 13.50 113.18 13.27L113.18 13.27Q113.18 13.15 113.36 13.11Q113.54 13.08 113.81 12.89Q114.07 12.71 114.21 12.21L114.21 12.21Q114.30 11.89 114.42 9.60Q114.55 7.32 114.55 6.45L114.55 6.45Q114.55 5.25 114.21 4.65Q113.88 4.06 113.12 3.98L113.12 3.98Q112.94 3.96 112.94 3.77ZM131.11 5.32L131.11 5.32Q131.11 4.76 131.25 3.88L131.25 3.88Q131.25 3.85 131.26 3.78Q131.26 3.71 131.27 3.69Q131.28 3.67 131.28 3.62Q131.29 3.57 131.31 3.55Q131.32 3.53 131.34 3.49Q131.36 3.46 131.39 3.44Q131.42 3.43 131.46 3.42Q131.50 3.40 131.56 3.39Q131.61 3.39 131.68 3.39L131.68 3.39Q131.91 3.39 132.87 3.44Q133.83 3.50 135.63 3.50L135.63 3.50Q138.71 3.50 139.94 3.43L139.94 3.43Q139.96 3.43 139.99 3.42Q140.03 3.42 140.04 3.42L140.04 3.42Q140.20 3.42 140.25 3.50Q140.31 3.58 140.31 3.65L140.31 3.65Q140.31 3.75 140.35 4.24Q140.39 4.73 140.39 4.79L140.39 4.79Q140.39 5.14 140.35 5.23Q140.31 5.32 140.17 5.32L140.17 5.32Q140.06 5.32 140.01 5.15L140.01 5.15Q139.90 4.75 139.82 4.60Q139.73 4.45 139.45 4.34Q139.17 4.23 138.60 4.23L138.60 4.23L136.78 4.23Q136.44 4.23 136.37 4.36Q136.29 4.49 136.29 5.12L136.29 5.12L136.29 5.81Q136.29 7.69 136.27 9.11Q136.25 10.54 136.25 10.93L136.25 10.93Q136.25 11.13 136.24 11.43Q136.23 11.73 136.23 11.84L136.23 11.84Q136.23 12.45 136.43 12.64L136.43 12.64Q136.61 12.81 136.84 12.90Q137.06 12.99 137.22 13.01Q137.38 13.02 137.49 13.08Q137.61 13.13 137.61 13.26L137.61 13.26Q137.61 13.41 137.54 13.45Q137.47 13.50 137.27 13.50L137.27 13.50Q137.10 13.50 136.53 13.44Q135.95 13.38 135.72 13.38L135.72 13.38Q135.55 13.38 135.04 13.43Q134.53 13.48 134.29 13.48L134.29 13.48Q133.77 13.48 133.77 13.26L133.77 13.26Q133.77 13.12 133.85 13.07Q133.94 13.02 134.18 12.98Q134.43 12.95 134.50 12.94L134.50 12.94Q134.97 12.82 135.03 12.38L135.03 12.38Q135.17 11.14 135.17 7.08L135.17 7.08L135.16 4.58Q135.16 4.31 135.00 4.25Q134.85 4.19 134.09 4.19L134.09 4.19Q133.11 4.19 132.61 4.24Q132.12 4.30 132.03 4.35Q131.95 4.40 131.84 4.54L131.84 4.54Q131.71 4.70 131.63 4.91Q131.56 5.11 131.54 5.24Q131.52 5.38 131.45 5.47Q131.39 5.56 131.26 5.56L131.26 5.56Q131.11 5.56 131.11 5.32ZM147.95 3.71L147.95 3.71Q147.95 3.46 148.33 3.46L148.33 3.46Q148.39 3.46 148.51 3.47Q148.64 3.49 148.71 3.49L148.71 3.49Q148.85 3.49 149.23 3.51Q149.62 3.54 149.93 3.54L149.93 3.54Q150.36 3.54 150.85 3.51Q151.34 3.49 151.40 3.49L151.40 3.49Q151.63 3.49 151.63 3.63L151.63 3.63Q151.63 3.82 151.47 3.88Q151.30 3.95 151.09 3.97Q150.89 3.99 150.70 4.28Q150.51 4.56 150.49 5.14L150.49 5.14Q150.46 5.68 150.42 8.19Q150.37 10.70 150.37 10.99L150.37 10.99L150.37 11.55Q150.37 12.56 150.71 12.66L150.71 12.66Q151.06 12.77 151.31 12.77L151.31 12.77Q152.36 12.77 153.15 12.67Q153.94 12.57 154.34 12.42Q154.74 12.28 155.01 12.10Q155.27 11.93 155.35 11.78Q155.43 11.63 155.50 11.54Q155.58 11.44 155.67 11.44L155.67 11.44Q155.83 11.44 155.83 11.68L155.83 11.68Q155.83 12.28 155.23 12.89Q154.63 13.51 154.18 13.51L154.18 13.51Q153.17 13.51 151.91 13.44Q150.64 13.37 150.33 13.37L150.33 13.37Q149.94 13.37 149.43 13.43Q148.92 13.48 148.58 13.48L148.58 13.48Q148.18 13.48 148.18 13.31L148.18 13.31Q148.18 13.22 148.25 13.15Q148.33 13.09 148.40 13.09L148.40 13.09Q148.61 13.09 148.81 12.95L148.81 12.95Q149.06 12.75 149.17 12.23Q149.28 11.70 149.28 10.21L149.28 10.21L149.28 8.47Q149.28 8.09 149.30 7.29Q149.32 6.50 149.32 6.05L149.32 6.05Q149.32 5.67 149.30 4.77L149.30 4.77Q149.28 4.37 148.95 4.14Q148.61 3.92 148.16 3.91L148.16 3.91Q148.02 3.91 147.99 3.86Q147.95 3.81 147.95 3.71ZM161.90 3.81L161.90 3.81Q161.90 3.65 162.06 3.61Q162.22 3.57 162.76 3.57L162.76 3.57Q162.85 3.57 163.15 3.58Q163.45 3.60 163.58 3.60L163.58 3.60Q163.73 3.60 164.14 3.59Q164.56 3.58 164.77 3.58L164.77 3.58Q165.47 3.58 165.47 3.75L165.47 3.75Q165.47 3.91 165.17 4.01Q164.88 4.12 164.88 4.24L164.88 4.24Q164.88 4.38 164.97 4.61Q165.06 4.83 165.15 4.97Q165.24 5.11 165.42 5.38Q165.61 5.64 165.63 5.70L165.63 5.70Q166.11 6.45 166.62 7.14Q167.13 7.83 167.20 7.83L167.20 7.83Q167.29 7.83 167.41 7.66Q167.54 7.50 167.76 7.13Q167.99 6.75 168.14 6.52L168.14 6.52Q168.18 6.45 168.34 6.22Q168.50 5.98 168.57 5.88Q168.63 5.78 168.76 5.58Q168.88 5.38 168.94 5.27Q168.99 5.17 169.07 5.02Q169.15 4.87 169.18 4.77Q169.20 4.68 169.20 4.59L169.20 4.59Q169.20 4.14 168.73 4.03L168.73 4.03Q168.67 4.02 168.57 4.00Q168.46 3.99 168.41 3.98Q168.36 3.96 168.29 3.93Q168.22 3.91 168.20 3.86Q168.17 3.81 168.17 3.74L168.17 3.74Q168.17 3.57 168.56 3.57L168.56 3.57Q168.63 3.57 168.82 3.58Q169.01 3.58 169.13 3.58L169.13 3.58Q169.46 3.58 169.91 3.59Q170.37 3.60 170.62 3.60L170.62 3.60Q171.30 3.60 171.30 3.81L171.30 3.81Q171.30 3.86 171.22 3.91Q171.14 3.95 170.98 4.02Q170.83 4.09 170.70 4.19L170.70 4.19Q170.13 4.63 169.02 6.31Q167.90 7.99 167.75 8.19L167.75 8.19Q167.52 8.47 167.47 8.81Q167.41 9.14 167.41 9.95L167.41 9.95Q167.41 10.14 167.42 10.73Q167.43 11.33 167.43 11.58L167.43 11.58L167.43 11.91Q167.43 12.38 167.59 12.64Q167.75 12.91 167.89 12.96Q168.03 13.01 168.17 13.01L168.17 13.01Q168.20 13.01 168.31 13.01Q168.42 13.02 168.45 13.02L168.45 13.02Q168.55 13.02 168.60 13.08Q168.66 13.15 168.66 13.22L168.66 13.22Q168.66 13.36 168.59 13.40Q168.52 13.44 168.32 13.44L168.32 13.44Q168.25 13.44 167.71 13.43Q167.17 13.43 166.92 13.43L166.92 13.43Q166.43 13.43 166.03 13.45Q165.62 13.48 165.38 13.48L165.38 13.48Q164.99 13.48 164.99 13.33L164.99 13.33Q164.99 13.20 165.07 13.15Q165.14 13.10 165.33 13.09Q165.51 13.08 165.59 13.05L165.59 13.05Q166.18 12.87 166.18 12.19L166.18 12.19Q166.18 12.11 166.19 11.92Q166.19 11.73 166.20 11.12Q166.21 10.50 166.21 9.35L166.21 9.35Q166.21 9.13 166.17 8.97Q166.14 8.81 166.09 8.65Q166.04 8.50 165.85 8.20Q165.66 7.91 165.48 7.64Q165.30 7.36 164.86 6.72Q164.42 6.08 164.01 5.46L164.01 5.46Q163.58 4.80 163.23 4.46Q162.88 4.12 162.69 4.05Q162.50 3.99 162.25 3.99L162.25 3.99Q161.90 3.99 161.90 3.81ZM188.85 3.72L188.85 3.72Q188.85 3.50 189.17 3.50L189.17 3.50Q189.21 3.50 189.32 3.49Q189.43 3.49 189.69 3.49L189.69 3.49Q189.76 3.49 190.07 3.51Q190.39 3.53 190.53 3.53L190.53 3.53Q190.83 3.53 191.72 3.51Q192.60 3.49 192.84 3.49L192.84 3.49Q194.15 3.49 195.10 4.15Q196.06 4.82 196.06 6.06L196.06 6.06Q196.06 6.75 195.80 7.29Q195.55 7.83 195.19 8.13Q194.84 8.44 194.40 8.64Q193.96 8.85 193.61 8.91Q193.27 8.97 193.00 8.97L193.00 8.97Q192.56 8.97 192.09 8.87Q191.63 8.76 191.63 8.65L191.63 8.65Q191.63 8.44 191.81 8.44L191.81 8.44Q191.88 8.44 192.10 8.50Q192.32 8.55 192.53 8.55L192.53 8.55Q192.85 8.55 193.21 8.46Q193.58 8.37 193.97 8.17Q194.36 7.97 194.61 7.55Q194.87 7.14 194.87 6.59L194.87 6.59Q194.87 5.66 194.11 4.85Q193.35 4.05 192.02 4.05L192.02 4.05Q191.59 4.05 191.44 4.30Q191.28 4.56 191.28 5.47L191.28 5.47Q191.28 8.39 191.27 8.80Q191.25 9.21 191.25 11.26L191.25 11.26Q191.25 12.49 191.83 12.87L191.83 12.87Q191.98 12.96 192.21 12.99Q192.44 13.02 192.60 13.01Q192.75 13.01 192.87 13.07Q192.99 13.13 192.99 13.30L192.99 13.30Q192.99 13.54 192.67 13.54Q192.35 13.54 191.53 13.50Q190.72 13.47 190.67 13.47L190.67 13.47Q190.53 13.47 190.11 13.50Q189.70 13.52 189.36 13.52L189.36 13.52Q188.93 13.52 188.93 13.37L188.93 13.37Q188.93 13.29 188.95 13.23Q188.97 13.17 188.99 13.14Q189.01 13.10 189.08 13.08Q189.15 13.05 189.18 13.03Q189.21 13.02 189.31 13.00Q189.42 12.98 189.46 12.96L189.46 12.96Q189.49 12.95 189.55 12.94Q189.60 12.94 189.62 12.93Q189.64 12.92 189.69 12.89Q189.74 12.85 189.77 12.79Q189.80 12.73 189.85 12.62Q189.90 12.52 189.95 12.35L189.95 12.35Q190.05 12.08 190.11 10.25Q190.16 8.41 190.16 7.41L190.16 7.41Q190.16 6.54 190.16 5.80Q190.15 5.07 190.15 5.03L190.15 5.03Q190.15 4.65 189.91 4.28Q189.67 3.91 189.13 3.91L189.13 3.91Q188.85 3.91 188.85 3.72ZM203.74 3.70L203.74 3.70Q203.74 3.47 204.15 3.47L204.15 3.47L206.47 3.47Q206.79 3.47 207.21 3.45Q207.63 3.43 207.87 3.43L207.87 3.43Q209.13 3.43 210.03 4.07Q210.92 4.70 210.92 5.78L210.92 5.78Q210.92 6.50 210.65 7.03Q210.38 7.57 210.05 7.81Q209.72 8.05 209.45 8.22Q209.17 8.40 209.17 8.46L209.17 8.46Q209.17 8.62 210.35 10.27Q211.53 11.91 211.96 12.38L211.96 12.38Q212.49 13.03 213.25 13.03L213.25 13.03Q213.44 13.03 213.44 13.20L213.44 13.20Q213.44 13.41 213.28 13.48Q213.11 13.55 212.41 13.55L212.41 13.55Q211.75 13.55 211.20 13.23L211.20 13.23Q210.50 12.82 208.84 10.09L208.84 10.09Q208.74 9.94 208.70 9.87L208.70 9.87Q208.03 8.78 207.66 8.78L207.66 8.78L207.37 8.78L206.51 8.78Q206.35 8.78 206.31 8.92Q206.28 9.06 206.28 9.77L206.28 9.77Q206.28 10.44 206.28 10.88Q206.28 11.31 206.28 11.43Q206.29 11.55 206.29 11.63Q206.29 11.70 206.29 11.75L206.29 11.75Q206.29 12.32 206.56 12.63Q206.82 12.95 207.15 13.00Q207.48 13.05 207.75 13.11Q208.01 13.17 208.01 13.31L208.01 13.31Q208.01 13.54 207.76 13.54L207.76 13.54Q207.75 13.54 206.79 13.49Q205.84 13.44 205.76 13.44L205.76 13.44Q205.35 13.44 204.79 13.47Q204.23 13.50 204.22 13.50L204.22 13.50Q203.92 13.50 203.92 13.27L203.92 13.27Q203.92 13.12 204.11 13.05Q204.29 12.99 204.51 12.96Q204.74 12.94 204.92 12.66Q205.10 12.38 205.10 11.86L205.10 11.86Q205.10 11.49 205.11 9.90Q205.11 8.30 205.11 7.45L205.11 7.45Q205.11 6.58 205.11 5.86Q205.10 5.14 205.10 5.08L205.10 5.08Q205.10 4.56 204.89 4.29Q204.68 4.02 204.42 3.98Q204.16 3.95 203.95 3.89Q203.74 3.84 203.74 3.70ZM206.28 5.54L206.28 5.94Q206.28 7.38 206.29 7.72Q206.30 8.06 206.39 8.12L206.39 8.12Q206.60 8.25 206.99 8.25L206.99 8.25L207.13 8.25L207.54 8.25Q208.73 8.25 209.24 7.70Q209.75 7.15 209.75 6.30L209.75 6.30Q209.75 5.43 209.07 4.72Q208.39 4.00 207.02 4.00L207.02 4.00Q206.50 4.00 206.39 4.28Q206.28 4.55 206.28 5.54L206.28 5.54ZM220.72 8.69L220.72 8.69Q220.72 6.34 222.14 4.84Q223.55 3.33 226.14 3.33L226.14 3.33Q227.35 3.33 228.31 3.68Q229.28 4.03 229.84 4.54Q230.40 5.05 230.78 5.71Q231.15 6.37 231.29 6.92Q231.43 7.48 231.43 7.95L231.43 7.95Q231.43 9.86 230.69 11.16Q229.95 12.47 228.74 13.07Q227.53 13.66 225.95 13.66L225.95 13.66Q224.28 13.66 223.07 12.94Q221.86 12.21 221.29 11.10Q220.72 10.00 220.72 8.69ZM221.96 7.98L221.96 7.98Q221.96 8.54 222.11 9.19Q222.26 9.84 222.61 10.54Q222.96 11.23 223.46 11.78Q223.96 12.33 224.72 12.69Q225.48 13.05 226.39 13.05L226.39 13.05Q226.87 13.05 227.39 12.90Q227.92 12.75 228.44 12.45Q228.96 12.14 229.36 11.70Q229.77 11.26 230.03 10.62Q230.29 9.98 230.29 9.24L230.29 9.24Q230.29 6.71 228.96 5.30Q227.63 3.89 225.67 3.89L225.67 3.89Q224.13 3.89 223.04 4.93Q221.96 5.96 221.96 7.98ZM239.33 3.64L239.33 3.64Q239.33 3.51 239.45 3.49Q239.57 3.47 240.04 3.47L240.04 3.47L241.26 3.47Q241.61 3.47 242.55 3.44Q243.49 3.42 243.99 3.42L243.99 3.42Q244.96 3.42 245.92 3.71Q246.89 4.00 247.70 4.56Q248.51 5.11 249.02 6.00Q249.52 6.89 249.52 7.98L249.52 7.98Q249.52 8.96 249.39 9.68Q249.26 10.40 248.95 10.93Q248.64 11.45 248.33 11.78Q248.02 12.11 247.49 12.56L247.49 12.56Q247.07 12.89 246.27 13.19Q245.48 13.48 244.64 13.48L244.64 13.48Q244.55 13.48 243.21 13.45Q241.86 13.41 241.28 13.41L241.28 13.41Q240.79 13.41 240.37 13.45Q239.95 13.48 239.88 13.48L239.88 13.48Q239.54 13.48 239.54 13.30L239.54 13.30Q239.54 13.19 239.59 13.14Q239.64 13.09 239.80 13.05Q239.96 13.01 240.03 12.98L240.03 12.98Q240.25 12.88 240.44 12.61Q240.63 12.33 240.63 12.07L240.63 12.07Q240.63 11.28 240.64 10.07Q240.65 8.85 240.65 8.27L240.65 8.27Q240.65 7.77 240.64 6.70Q240.63 5.63 240.63 4.72L240.63 4.72Q240.63 4.48 240.40 4.23Q240.17 3.99 239.89 3.98L239.89 3.98Q239.69 3.96 239.60 3.95Q239.51 3.93 239.42 3.86Q239.33 3.78 239.33 3.64ZM241.81 11.47L241.81 11.47Q241.81 11.73 241.81 11.90Q241.82 12.07 241.87 12.21Q241.92 12.35 241.95 12.40Q241.98 12.46 242.12 12.53Q242.26 12.60 242.33 12.62Q242.41 12.64 242.66 12.71Q242.91 12.78 243.08 12.82L243.08 12.82Q243.57 12.96 244.10 12.96L244.10 12.96L244.38 12.96Q245.34 12.96 246.01 12.69Q246.68 12.42 247.30 11.83L247.30 11.83Q248.33 10.84 248.33 8.61L248.33 8.61Q248.33 7.49 247.89 6.58Q247.45 5.67 246.74 5.13Q246.02 4.59 245.20 4.30Q244.37 4.02 243.53 4.02L243.53 4.02Q243.15 4.02 242.98 4.02Q242.80 4.02 242.57 4.05Q242.34 4.09 242.26 4.11Q242.19 4.13 242.07 4.25Q241.96 4.37 241.94 4.45Q241.92 4.54 241.88 4.78Q241.85 5.03 241.85 5.21Q241.85 5.39 241.85 5.80L241.85 5.80Q241.85 6.10 241.84 7.24Q241.82 8.39 241.82 8.48L241.82 8.48Q241.82 9.32 241.81 10.30Q241.81 11.28 241.81 11.47ZM257.42 3.68L257.42 3.68Q257.42 3.61 257.43 3.58Q257.45 3.56 257.52 3.53Q257.59 3.50 257.74 3.50Q257.89 3.50 258.38 3.53Q258.87 3.56 259.32 3.56L259.32 3.56Q259.60 3.56 259.83 3.54Q260.06 3.53 260.64 3.53L260.64 3.53Q260.93 3.53 260.93 3.72L260.93 3.72Q260.93 3.85 260.83 3.88Q260.74 3.91 260.59 3.92Q260.44 3.93 260.29 4.02Q260.15 4.10 260.05 4.43Q259.95 4.76 259.95 5.32L259.95 5.32L259.95 5.71Q259.95 6.37 259.94 7.37Q259.94 8.37 259.94 8.74L259.94 8.74Q259.94 9.17 259.94 9.39Q259.95 9.62 259.98 10.04Q260.01 10.47 260.06 10.72Q260.11 10.96 260.22 11.32Q260.33 11.68 260.49 11.89Q260.65 12.10 260.90 12.35Q261.14 12.60 261.46 12.73Q261.79 12.87 262.22 12.96Q262.65 13.05 263.19 13.05L263.19 13.05Q263.63 13.05 263.89 13.03Q264.14 13.02 264.58 12.94Q265.02 12.87 265.28 12.72Q265.54 12.57 265.87 12.27Q266.20 11.97 266.38 11.54Q266.56 11.10 266.69 10.43Q266.81 9.76 266.81 8.90L266.81 8.90Q266.81 7.49 266.80 6.75Q266.80 6.01 266.80 5.94L266.80 5.94Q266.80 5.45 266.78 5.17Q266.76 4.89 266.64 4.55Q266.52 4.21 266.29 4.06L266.29 4.06Q266.15 3.96 265.93 3.93Q265.71 3.89 265.57 3.87Q265.43 3.85 265.43 3.75L265.43 3.75Q265.43 3.53 265.71 3.53L265.71 3.53Q265.79 3.53 266.25 3.54Q266.71 3.56 266.78 3.56L266.78 3.56Q267.12 3.56 267.50 3.54Q267.88 3.51 267.97 3.51L267.97 3.51Q268.27 3.51 268.27 3.70L268.27 3.70Q268.27 3.81 267.97 3.98Q267.67 4.16 267.60 4.30L267.60 4.30Q267.44 4.59 267.44 5.22L267.44 5.22Q267.44 5.32 267.45 5.62Q267.46 5.92 267.46 6.16L267.46 6.16Q267.46 8.85 267.23 10.28Q267.01 11.70 266.55 12.36Q266.10 13.01 265.19 13.40L265.19 13.40Q264.45 13.71 263.19 13.71L263.19 13.71Q260.85 13.71 259.87 12.81L259.87 12.81Q259.10 12.10 258.92 11.09Q258.73 10.09 258.73 7.64L258.73 7.64L258.73 7.41Q258.73 6.86 258.75 6.20Q258.76 5.54 258.76 5.39L258.76 5.39Q258.76 4.62 258.58 4.33Q258.40 4.05 257.73 3.95L257.73 3.95Q257.42 3.91 257.42 3.68ZM276.16 8.90L276.16 8.90Q276.16 7.38 276.75 6.16Q277.34 4.94 278.56 4.19Q279.79 3.44 281.47 3.44L281.47 3.44Q282.32 3.44 283.19 3.70Q284.06 3.95 284.58 4.20L284.58 4.20L285.10 4.47Q285.14 4.47 285.24 4.40Q285.33 4.33 285.39 4.33L285.39 4.33Q285.46 4.33 285.53 4.38Q285.60 4.44 285.60 4.55L285.60 4.55Q285.61 4.96 285.66 5.41Q285.71 5.87 285.75 6.16Q285.80 6.45 285.80 6.51L285.80 6.51Q285.80 6.76 285.63 6.76L285.63 6.76Q285.50 6.76 285.39 6.57L285.39 6.57Q284.03 4.02 281.47 4.02L281.47 4.02Q279.72 4.02 278.60 5.14Q277.48 6.26 277.48 8.06L277.48 8.06Q277.48 9.06 277.74 9.93Q278.00 10.79 278.52 11.51Q279.05 12.24 279.97 12.66Q280.90 13.08 282.13 13.08L282.13 13.08Q284.14 13.08 285.52 10.98L285.52 10.98Q285.57 10.88 285.73 10.88L285.73 10.88Q285.85 10.88 285.85 11.07L285.85 11.07Q285.85 11.23 285.80 11.49Q285.75 11.75 285.68 12.06Q285.61 12.38 285.60 12.45L285.60 12.45Q285.57 12.60 285.38 12.70L285.38 12.70Q284.62 13.06 284.19 13.24Q283.77 13.43 283.11 13.57Q282.45 13.72 281.76 13.72L281.76 13.72Q280.55 13.72 279.57 13.43Q278.59 13.13 277.96 12.66Q277.34 12.18 276.92 11.54Q276.50 10.91 276.33 10.25Q276.16 9.60 276.16 8.90ZM294.13 3.65L294.13 3.65Q294.13 3.46 294.52 3.46L294.52 3.46Q294.57 3.46 294.70 3.47Q294.83 3.49 294.90 3.49L294.90 3.49Q294.94 3.49 296.21 3.52Q297.49 3.56 298.31 3.56L298.31 3.56Q298.61 3.56 299.76 3.53Q300.92 3.50 301.11 3.50L301.11 3.50Q301.38 3.50 301.38 3.82L301.38 3.82Q301.38 3.91 301.29 4.38Q301.21 4.84 301.21 5.25L301.21 5.25Q301.21 5.38 301.14 5.47Q301.07 5.56 300.99 5.56L300.99 5.56Q300.78 5.56 300.78 5.26L300.78 5.26Q300.78 4.89 300.54 4.58Q300.30 4.27 299.95 4.26L299.95 4.26Q298.69 4.16 298.02 4.16L298.02 4.16L297.65 4.16Q296.93 4.16 296.81 4.26Q296.69 4.37 296.66 5.01L296.66 5.01Q296.60 6.02 296.60 7.35L296.60 7.35Q296.60 8.05 296.87 8.06L296.87 8.06L297.22 8.06L297.81 8.06L298.24 8.06Q299.08 8.06 299.36 8.01Q299.64 7.95 299.87 7.80L299.87 7.80Q300.13 7.62 300.19 7.28L300.19 7.28Q300.23 7.04 300.38 7.04L300.38 7.04Q300.51 7.04 300.54 7.08Q300.57 7.13 300.57 7.27L300.57 7.27Q300.57 7.36 300.51 7.91Q300.45 8.46 300.45 8.74L300.45 8.74Q300.45 9.00 300.48 9.24Q300.50 9.48 300.50 9.59L300.50 9.59Q300.50 9.94 300.40 9.94L300.40 9.94Q300.19 9.94 300.09 9.60L300.09 9.60Q299.89 9.02 299.74 8.92L299.74 8.92Q299.45 8.72 298.40 8.72L298.40 8.72Q297.98 8.72 297.72 8.72Q297.46 8.72 297.38 8.71Q297.30 8.71 297.25 8.71Q297.21 8.71 297.16 8.71L297.16 8.71Q296.59 8.71 296.59 8.97L296.59 8.97Q296.59 9.38 296.58 9.99Q296.56 10.60 296.56 10.99L296.56 10.99L296.56 11.55Q296.56 12.56 296.90 12.66L296.90 12.66Q297.25 12.77 297.50 12.77L297.50 12.77Q298.55 12.77 299.34 12.67Q300.13 12.57 300.53 12.42Q300.93 12.28 301.20 12.10Q301.46 11.93 301.54 11.78Q301.62 11.63 301.69 11.54Q301.77 11.44 301.85 11.44L301.85 11.44Q302.02 11.44 302.02 11.68L302.02 11.68Q302.02 12.28 301.42 12.89Q300.82 13.51 300.37 13.51L300.37 13.51Q299.36 13.51 298.10 13.44Q296.83 13.37 296.52 13.37L296.52 13.37Q296.13 13.37 295.54 13.43Q294.95 13.50 294.62 13.50L294.62 13.50Q294.32 13.50 294.32 13.36L294.32 13.36Q294.32 13.23 294.32 13.19Q294.32 13.15 294.36 13.12Q294.41 13.09 294.45 13.08Q294.50 13.08 294.64 13.03Q294.77 12.99 294.92 12.92L294.92 12.92Q295.26 12.75 295.37 12.26Q295.47 11.77 295.47 10.21L295.47 10.21L295.47 8.47Q295.47 8.09 295.49 7.29Q295.51 6.50 295.51 6.05L295.51 6.05Q295.51 5.67 295.48 4.77L295.48 4.77Q295.47 4.37 295.13 4.14Q294.80 3.92 294.35 3.91L294.35 3.91Q294.13 3.91 294.13 3.65ZM319.56 3.65L319.56 3.65Q319.56 3.46 319.96 3.46L319.96 3.46Q320.01 3.46 320.14 3.47Q320.26 3.49 320.33 3.49L320.33 3.49Q320.38 3.49 321.65 3.52Q322.92 3.56 323.75 3.56L323.75 3.56Q324.04 3.56 325.20 3.53Q326.35 3.50 326.55 3.50L326.55 3.50Q326.82 3.50 326.82 3.82L326.82 3.82Q326.82 3.91 326.73 4.38Q326.65 4.84 326.65 5.25L326.65 5.25Q326.65 5.38 326.58 5.47Q326.51 5.56 326.42 5.56L326.42 5.56Q326.21 5.56 326.21 5.26L326.21 5.26Q326.21 4.89 325.98 4.58Q325.74 4.27 325.39 4.26L325.39 4.26Q324.13 4.16 323.46 4.16L323.46 4.16L323.09 4.16Q322.36 4.16 322.25 4.26Q322.13 4.37 322.10 5.01L322.10 5.01Q322.04 6.02 322.04 7.35L322.04 7.35Q322.04 8.05 322.31 8.06L322.31 8.06L322.66 8.06L323.25 8.06L323.68 8.06Q324.52 8.06 324.80 8.01Q325.08 7.95 325.30 7.80L325.30 7.80Q325.57 7.62 325.63 7.28L325.63 7.28Q325.67 7.04 325.82 7.04L325.82 7.04Q325.95 7.04 325.98 7.08Q326.00 7.13 326.00 7.27L326.00 7.27Q326.00 7.36 325.95 7.91Q325.89 8.46 325.89 8.74L325.89 8.74Q325.89 9.00 325.91 9.24Q325.93 9.48 325.93 9.59L325.93 9.59Q325.93 9.94 325.84 9.94L325.84 9.94Q325.63 9.94 325.53 9.60L325.53 9.60Q325.33 9.02 325.18 8.92L325.18 8.92Q324.88 8.72 323.83 8.72L323.83 8.72Q323.41 8.72 323.16 8.72Q322.90 8.72 322.82 8.71Q322.74 8.71 322.69 8.71Q322.64 8.71 322.60 8.71L322.60 8.71Q322.03 8.71 322.03 8.97L322.03 8.97Q322.03 9.38 322.01 9.99Q322.00 10.60 322.00 10.99L322.00 10.99L322.00 11.55Q322.00 12.56 322.34 12.66L322.34 12.66Q322.69 12.77 322.94 12.77L322.94 12.77Q323.99 12.77 324.78 12.67Q325.57 12.57 325.97 12.42Q326.37 12.28 326.63 12.10Q326.90 11.93 326.98 11.78Q327.05 11.63 327.13 11.54Q327.21 11.44 327.29 11.44L327.29 11.44Q327.46 11.44 327.46 11.68L327.46 11.68Q327.46 12.28 326.86 12.89Q326.26 13.51 325.81 13.51L325.81 13.51Q324.80 13.51 323.53 13.44Q322.27 13.37 321.96 13.37L321.96 13.37Q321.57 13.37 320.98 13.43Q320.39 13.50 320.05 13.50L320.05 13.50Q319.76 13.50 319.76 13.36L319.76 13.36Q319.76 13.23 319.76 13.19Q319.76 13.15 319.80 13.12Q319.84 13.09 319.89 13.08Q319.94 13.08 320.08 13.03Q320.21 12.99 320.36 12.92L320.36 12.92Q320.70 12.75 320.80 12.26Q320.91 11.77 320.91 10.21L320.91 10.21L320.91 8.47Q320.91 8.09 320.93 7.29Q320.95 6.50 320.95 6.05L320.95 6.05Q320.95 5.67 320.92 4.77L320.92 4.77Q320.91 4.37 320.57 4.14Q320.24 3.92 319.79 3.91L319.79 3.91Q319.56 3.91 319.56 3.65ZM335.02 3.63L335.02 3.63Q335.02 3.51 335.12 3.48Q335.22 3.44 335.61 3.44L335.61 3.44Q335.87 3.44 336.14 3.47Q336.41 3.50 336.85 3.50L336.85 3.50Q336.94 3.50 337.60 3.49Q338.27 3.47 338.32 3.47L338.32 3.47Q338.63 3.47 338.63 3.60Q338.63 3.72 338.53 3.78Q338.44 3.84 338.32 3.84Q338.20 3.85 338.10 3.92Q338.00 3.99 338.00 4.14L338.00 4.14Q338.00 4.41 338.76 5.50L338.76 5.50Q339.89 7.22 340.03 7.36L340.03 7.36Q340.12 7.45 340.16 7.45L340.16 7.45Q340.27 7.45 340.48 7.14L340.48 7.14Q340.61 6.96 340.89 6.56Q341.17 6.16 341.38 5.84Q341.60 5.53 341.83 5.19Q342.06 4.84 342.20 4.61Q342.33 4.37 342.33 4.27L342.33 4.27Q342.33 4.05 342.21 3.94Q342.09 3.84 341.96 3.82Q341.82 3.81 341.71 3.76Q341.59 3.71 341.59 3.58L341.59 3.58Q341.59 3.44 341.80 3.44L341.80 3.44Q342.10 3.44 342.40 3.47Q342.69 3.50 342.93 3.50L342.93 3.50Q343.71 3.50 343.96 3.47Q344.20 3.44 344.25 3.44L344.25 3.44Q344.47 3.44 344.47 3.58Q344.47 3.72 344.34 3.77Q344.22 3.82 343.94 3.92Q343.66 4.02 343.42 4.19L343.42 4.19Q343.15 4.37 342.68 5.01L342.68 5.01Q340.51 7.92 340.51 7.95L340.51 7.95Q340.51 8.05 341.01 8.76L341.01 8.76Q341.67 9.70 342.27 10.57L342.27 10.57Q343.56 12.45 344.09 12.88L344.09 12.88Q344.13 12.92 344.37 12.96Q344.60 13.01 344.79 13.08Q344.97 13.15 344.97 13.26L344.97 13.26Q344.97 13.33 344.95 13.36Q344.93 13.40 344.83 13.43Q344.72 13.45 344.53 13.45L344.53 13.45Q344.26 13.45 343.67 13.40Q343.07 13.36 343.03 13.36L343.03 13.36Q342.62 13.36 342.31 13.38Q341.99 13.40 341.82 13.42Q341.66 13.44 341.60 13.44L341.60 13.44Q341.42 13.44 341.42 13.26L341.42 13.26Q341.42 13.09 341.78 13.01Q342.13 12.92 342.13 12.66L342.13 12.66Q342.13 12.56 342.04 12.38Q341.95 12.19 341.74 11.86Q341.53 11.52 341.31 11.21Q341.10 10.89 340.68 10.29Q340.27 9.69 339.95 9.20L339.95 9.20Q339.81 8.96 339.71 8.96L339.71 8.96Q339.68 8.96 339.42 9.39L339.42 9.39Q339.11 9.88 338.53 10.66Q337.95 11.44 337.65 11.91Q337.36 12.39 337.36 12.67L337.36 12.67Q337.36 13.05 338.11 13.05L338.11 13.05Q338.28 13.05 338.28 13.29L338.28 13.29Q338.28 13.44 337.85 13.44L337.85 13.44Q337.71 13.44 337.18 13.42Q336.66 13.40 336.62 13.40L336.62 13.40Q336.49 13.40 336.07 13.43Q335.65 13.45 335.50 13.45Q335.34 13.45 335.27 13.44Q335.20 13.43 335.15 13.37Q335.09 13.31 335.09 13.19L335.09 13.19Q335.09 13.09 335.17 13.05Q335.26 13.02 335.38 13.01Q335.50 13.01 335.70 12.94Q335.90 12.87 336.08 12.73L336.08 12.73Q336.22 12.61 336.39 12.46Q336.55 12.31 336.72 12.09Q336.90 11.87 337.04 11.70Q337.18 11.54 337.39 11.25Q337.60 10.96 337.70 10.81Q337.81 10.67 338.04 10.34Q338.27 10.01 338.35 9.90L338.35 9.90Q338.56 9.60 338.86 9.22Q339.15 8.83 339.27 8.67Q339.39 8.50 339.39 8.46Q339.39 8.41 339.33 8.32Q339.28 8.23 339.12 8.02Q338.97 7.80 338.78 7.54Q338.59 7.28 338.23 6.78Q337.86 6.27 337.48 5.73L337.48 5.73Q336.36 4.07 335.58 3.91L335.58 3.91Q335.55 3.91 335.43 3.88Q335.30 3.86 335.23 3.84Q335.16 3.82 335.09 3.77Q335.02 3.71 335.02 3.63ZM352.46 8.90L352.46 8.90Q352.46 7.38 353.05 6.16Q353.64 4.94 354.87 4.19Q356.09 3.44 357.77 3.44L357.77 3.44Q358.62 3.44 359.49 3.70Q360.36 3.95 360.88 4.20L360.88 4.20L361.40 4.47Q361.44 4.47 361.54 4.40Q361.63 4.33 361.69 4.33L361.69 4.33Q361.76 4.33 361.83 4.38Q361.90 4.44 361.90 4.55L361.90 4.55Q361.91 4.96 361.96 5.41Q362.01 5.87 362.05 6.16Q362.10 6.45 362.10 6.51L362.10 6.51Q362.10 6.76 361.93 6.76L361.93 6.76Q361.80 6.76 361.69 6.57L361.69 6.57Q360.33 4.02 357.77 4.02L357.77 4.02Q356.02 4.02 354.90 5.14Q353.78 6.26 353.78 8.06L353.78 8.06Q353.78 9.06 354.04 9.93Q354.30 10.79 354.82 11.51Q355.35 12.24 356.27 12.66Q357.20 13.08 358.43 13.08L358.43 13.08Q360.44 13.08 361.82 10.98L361.82 10.98Q361.87 10.88 362.03 10.88L362.03 10.88Q362.15 10.88 362.15 11.07L362.15 11.07Q362.15 11.23 362.10 11.49Q362.05 11.75 361.98 12.06Q361.91 12.38 361.90 12.45L361.90 12.45Q361.87 12.60 361.68 12.70L361.68 12.70Q360.92 13.06 360.49 13.24Q360.07 13.43 359.41 13.57Q358.75 13.72 358.06 13.72L358.06 13.72Q356.85 13.72 355.87 13.43Q354.89 13.13 354.26 12.66Q353.64 12.18 353.22 11.54Q352.80 10.91 352.63 10.25Q352.46 9.60 352.46 8.90ZM370.43 3.65L370.43 3.65Q370.43 3.46 370.82 3.46L370.82 3.46Q370.87 3.46 371.00 3.47Q371.13 3.49 371.20 3.49L371.20 3.49Q371.24 3.49 372.51 3.52Q373.79 3.56 374.61 3.56L374.61 3.56Q374.91 3.56 376.06 3.53Q377.22 3.50 377.41 3.50L377.41 3.50Q377.68 3.50 377.68 3.82L377.68 3.82Q377.68 3.91 377.59 4.38Q377.51 4.84 377.51 5.25L377.51 5.25Q377.51 5.38 377.44 5.47Q377.37 5.56 377.29 5.56L377.29 5.56Q377.08 5.56 377.08 5.26L377.08 5.26Q377.08 4.89 376.84 4.58Q376.60 4.27 376.25 4.26L376.25 4.26Q374.99 4.16 374.32 4.16L374.32 4.16L373.95 4.16Q373.23 4.16 373.11 4.26Q372.99 4.37 372.96 5.01L372.96 5.01Q372.90 6.02 372.90 7.35L372.90 7.35Q372.90 8.05 373.17 8.06L373.17 8.06L373.52 8.06L374.11 8.06L374.54 8.06Q375.38 8.06 375.66 8.01Q375.94 7.95 376.17 7.80L376.17 7.80Q376.43 7.62 376.49 7.28L376.49 7.28Q376.53 7.04 376.68 7.04L376.68 7.04Q376.81 7.04 376.84 7.08Q376.87 7.13 376.87 7.27L376.87 7.27Q376.87 7.36 376.81 7.91Q376.75 8.46 376.75 8.74L376.75 8.74Q376.75 9.00 376.78 9.24Q376.80 9.48 376.80 9.59L376.80 9.59Q376.80 9.94 376.70 9.94L376.70 9.94Q376.49 9.94 376.39 9.60L376.39 9.60Q376.19 9.02 376.04 8.92L376.04 8.92Q375.75 8.72 374.70 8.72L374.70 8.72Q374.28 8.72 374.02 8.72Q373.76 8.72 373.68 8.71Q373.60 8.71 373.56 8.71Q373.51 8.71 373.46 8.71L373.46 8.71Q372.89 8.71 372.89 8.97L372.89 8.97Q372.89 9.38 372.88 9.99Q372.86 10.60 372.86 10.99L372.86 10.99L372.86 11.55Q372.86 12.56 373.20 12.66L373.20 12.66Q373.55 12.77 373.80 12.77L373.80 12.77Q374.85 12.77 375.64 12.67Q376.43 12.57 376.83 12.42Q377.23 12.28 377.50 12.10Q377.76 11.93 377.84 11.78Q377.92 11.63 377.99 11.54Q378.07 11.44 378.15 11.44L378.15 11.44Q378.32 11.44 378.32 11.68L378.32 11.68Q378.32 12.28 377.72 12.89Q377.12 13.51 376.67 13.51L376.67 13.51Q375.66 13.51 374.40 13.44Q373.13 13.37 372.82 13.37L372.82 13.37Q372.43 13.37 371.84 13.43Q371.25 13.50 370.92 13.50L370.92 13.50Q370.62 13.50 370.62 13.36L370.62 13.36Q370.62 13.23 370.62 13.19Q370.62 13.15 370.66 13.12Q370.71 13.09 370.76 13.08Q370.80 13.08 370.94 13.03Q371.07 12.99 371.22 12.92L371.22 12.92Q371.56 12.75 371.67 12.26Q371.77 11.77 371.77 10.21L371.77 10.21L371.77 8.47Q371.77 8.09 371.79 7.29Q371.81 6.50 371.81 6.05L371.81 6.05Q371.81 5.67 371.78 4.77L371.78 4.77Q371.77 4.37 371.43 4.14Q371.10 3.92 370.65 3.91L370.65 3.91Q370.43 3.91 370.43 3.65ZM385.88 3.71L385.88 3.71Q385.88 3.46 386.26 3.46L386.26 3.46Q386.32 3.46 386.44 3.47Q386.57 3.49 386.64 3.49L386.64 3.49Q386.78 3.49 387.16 3.51Q387.55 3.54 387.86 3.54L387.86 3.54Q388.29 3.54 388.78 3.51Q389.27 3.49 389.33 3.49L389.33 3.49Q389.56 3.49 389.56 3.63L389.56 3.63Q389.56 3.82 389.40 3.88Q389.23 3.95 389.03 3.97Q388.82 3.99 388.63 4.28Q388.44 4.56 388.42 5.14L388.42 5.14Q388.39 5.68 388.35 8.19Q388.30 10.70 388.30 10.99L388.30 10.99L388.30 11.55Q388.30 12.56 388.64 12.66L388.64 12.66Q388.99 12.77 389.24 12.77L389.24 12.77Q390.29 12.77 391.08 12.67Q391.87 12.57 392.27 12.42Q392.67 12.28 392.94 12.10Q393.20 11.93 393.28 11.78Q393.36 11.63 393.44 11.54Q393.51 11.44 393.60 11.44L393.60 11.44Q393.76 11.44 393.76 11.68L393.76 11.68Q393.76 12.28 393.16 12.89Q392.56 13.51 392.11 13.51L392.11 13.51Q391.10 13.51 389.84 13.44Q388.57 13.37 388.26 13.37L388.26 13.37Q387.87 13.37 387.36 13.43Q386.85 13.48 386.51 13.48L386.51 13.48Q386.11 13.48 386.11 13.31L386.11 13.31Q386.11 13.22 386.18 13.15Q386.26 13.09 386.33 13.09L386.33 13.09Q386.54 13.09 386.74 12.95L386.74 12.95Q386.99 12.75 387.10 12.23Q387.21 11.70 387.21 10.21L387.21 10.21L387.21 8.47Q387.21 8.09 387.23 7.29Q387.25 6.50 387.25 6.05L387.25 6.05Q387.25 5.67 387.23 4.77L387.23 4.77Q387.21 4.37 386.88 4.14Q386.54 3.92 386.09 3.91L386.09 3.91Q385.95 3.91 385.92 3.86Q385.88 3.81 385.88 3.71ZM401.32 3.71L401.32 3.71Q401.32 3.46 401.70 3.46L401.70 3.46Q401.76 3.46 401.88 3.47Q402.01 3.49 402.08 3.49L402.08 3.49Q402.22 3.49 402.61 3.51Q402.99 3.54 403.30 3.54L403.30 3.54Q403.73 3.54 404.22 3.51Q404.71 3.49 404.77 3.49L404.77 3.49Q405.01 3.49 405.01 3.63L405.01 3.63Q405.01 3.82 404.84 3.88Q404.67 3.95 404.47 3.97Q404.26 3.99 404.08 4.28Q403.89 4.56 403.86 5.14L403.86 5.14Q403.83 5.68 403.79 8.19Q403.75 10.70 403.75 10.99L403.75 10.99L403.75 11.55Q403.75 12.56 404.08 12.66L404.08 12.66Q404.43 12.77 404.68 12.77L404.68 12.77Q405.73 12.77 406.53 12.67Q407.32 12.57 407.72 12.42Q408.11 12.28 408.38 12.10Q408.65 11.93 408.72 11.78Q408.80 11.63 408.88 11.54Q408.95 11.44 409.04 11.44L409.04 11.44Q409.21 11.44 409.21 11.68L409.21 11.68Q409.21 12.28 408.60 12.89Q408.00 13.51 407.55 13.51L407.55 13.51Q406.55 13.51 405.28 13.44Q404.01 13.37 403.70 13.37L403.70 13.37Q403.31 13.37 402.80 13.43Q402.29 13.48 401.95 13.48L401.95 13.48Q401.55 13.48 401.55 13.31L401.55 13.31Q401.55 13.22 401.63 13.15Q401.70 13.09 401.77 13.09L401.77 13.09Q401.98 13.09 402.18 12.95L402.18 12.95Q402.43 12.75 402.54 12.23Q402.65 11.70 402.65 10.21L402.65 10.21L402.65 8.47Q402.65 8.09 402.68 7.29Q402.70 6.50 402.70 6.05L402.70 6.05Q402.70 5.67 402.67 4.77L402.67 4.77Q402.65 4.37 402.32 4.14Q401.98 3.92 401.53 3.91L401.53 3.91Q401.39 3.91 401.36 3.86Q401.32 3.81 401.32 3.71ZM416.77 3.65L416.77 3.65Q416.77 3.46 417.16 3.46L417.16 3.46Q417.21 3.46 417.34 3.47Q417.47 3.49 417.54 3.49L417.54 3.49Q417.58 3.49 418.85 3.52Q420.13 3.56 420.95 3.56L420.95 3.56Q421.25 3.56 422.40 3.53Q423.56 3.50 423.75 3.50L423.75 3.50Q424.02 3.50 424.02 3.82L424.02 3.82Q424.02 3.91 423.93 4.38Q423.85 4.84 423.85 5.25L423.85 5.25Q423.85 5.38 423.78 5.47Q423.71 5.56 423.63 5.56L423.63 5.56Q423.42 5.56 423.42 5.26L423.42 5.26Q423.42 4.89 423.18 4.58Q422.94 4.27 422.59 4.26L422.59 4.26Q421.33 4.16 420.66 4.16L420.66 4.16L420.29 4.16Q419.57 4.16 419.45 4.26Q419.33 4.37 419.30 5.01L419.30 5.01Q419.24 6.02 419.24 7.35L419.24 7.35Q419.24 8.05 419.51 8.06L419.51 8.06L419.86 8.06L420.45 8.06L420.88 8.06Q421.72 8.06 422.00 8.01Q422.28 7.95 422.51 7.80L422.51 7.80Q422.77 7.62 422.83 7.28L422.83 7.28Q422.87 7.04 423.02 7.04L423.02 7.04Q423.15 7.04 423.18 7.08Q423.21 7.13 423.21 7.27L423.21 7.27Q423.21 7.36 423.15 7.91Q423.09 8.46 423.09 8.74L423.09 8.74Q423.09 9.00 423.12 9.24Q423.14 9.48 423.14 9.59L423.14 9.59Q423.14 9.94 423.04 9.94L423.04 9.94Q422.83 9.94 422.73 9.60L422.73 9.60Q422.53 9.02 422.38 8.92L422.38 8.92Q422.09 8.72 421.04 8.72L421.04 8.72Q420.62 8.72 420.36 8.72Q420.10 8.72 420.02 8.71Q419.94 8.71 419.90 8.71Q419.85 8.71 419.80 8.71L419.80 8.71Q419.23 8.71 419.23 8.97L419.23 8.97Q419.23 9.38 419.22 9.99Q419.20 10.60 419.20 10.99L419.20 10.99L419.20 11.55Q419.20 12.56 419.54 12.66L419.54 12.66Q419.89 12.77 420.14 12.77L420.14 12.77Q421.19 12.77 421.98 12.67Q422.77 12.57 423.17 12.42Q423.57 12.28 423.84 12.10Q424.10 11.93 424.18 11.78Q424.26 11.63 424.33 11.54Q424.41 11.44 424.49 11.44L424.49 11.44Q424.66 11.44 424.66 11.68L424.66 11.68Q424.66 12.28 424.06 12.89Q423.46 13.51 423.01 13.51L423.01 13.51Q422.00 13.51 420.74 13.44Q419.47 13.37 419.16 13.37L419.16 13.37Q418.77 13.37 418.18 13.43Q417.59 13.50 417.26 13.50L417.26 13.50Q416.96 13.50 416.96 13.36L416.96 13.36Q416.96 13.23 416.96 13.19Q416.96 13.15 417.00 13.12Q417.05 13.09 417.10 13.08Q417.14 13.08 417.28 13.03Q417.41 12.99 417.56 12.92L417.56 12.92Q417.90 12.75 418.01 12.26Q418.11 11.77 418.11 10.21L418.11 10.21L418.11 8.47Q418.11 8.09 418.13 7.29Q418.15 6.50 418.15 6.05L418.15 6.05Q418.15 5.67 418.12 4.77L418.12 4.77Q418.11 4.37 417.77 4.14Q417.44 3.92 416.99 3.91L416.99 3.91Q416.77 3.91 416.77 3.65ZM432.22 3.77L432.22 3.77Q432.22 3.68 432.32 3.60Q432.42 3.53 432.57 3.53L432.57 3.53Q432.66 3.53 432.85 3.54Q433.05 3.54 433.10 3.54L433.10 3.54Q433.31 3.54 433.50 3.53Q433.68 3.51 433.79 3.51L433.79 3.51Q433.92 3.51 434.08 3.59Q434.25 3.67 434.28 3.75L434.28 3.75Q434.31 3.79 434.43 3.94Q434.56 4.09 434.77 4.33Q434.98 4.56 435.15 4.79L435.15 4.79Q437.05 7.27 440.24 10.77L440.24 10.77Q440.33 10.86 440.45 10.99Q440.57 11.12 440.62 11.18Q440.66 11.24 440.72 11.30Q440.78 11.35 440.81 11.38Q440.85 11.40 440.87 11.40L440.87 11.40Q441.01 11.40 441.01 10.53L441.01 10.53L441.01 8.89Q441.01 7.95 441.01 7.31Q441.00 6.66 440.99 6.38Q440.99 6.09 440.99 6.02L440.99 6.02L440.99 5.92Q440.99 5.45 440.92 5.11Q440.86 4.77 440.78 4.59Q440.69 4.41 440.53 4.28Q440.37 4.16 440.26 4.12Q440.15 4.09 439.94 4.05Q439.73 4.00 439.64 3.98L439.64 3.98Q439.36 3.89 439.36 3.74L439.36 3.74Q439.36 3.53 439.63 3.53L439.63 3.53Q439.71 3.53 440.30 3.54Q440.89 3.54 440.96 3.54L440.96 3.54Q441.29 3.54 441.71 3.53Q442.12 3.51 442.22 3.51L442.22 3.51Q442.46 3.51 442.55 3.56Q442.64 3.61 442.64 3.75L442.64 3.75Q442.64 3.81 442.56 3.86Q442.48 3.91 442.40 3.94Q442.32 3.98 442.23 4.00L442.23 4.00L442.15 4.03Q441.69 4.28 441.69 5.61L441.69 5.61L441.69 6.15Q441.69 7.21 441.61 9.83Q441.53 12.46 441.53 13.08L441.53 13.08L441.53 13.36Q441.53 13.68 441.34 13.68L441.34 13.68Q441.21 13.68 441.11 13.58L441.11 13.58Q436.46 8.19 435.56 7.17Q434.66 6.16 434.56 6.16L434.56 6.16Q434.42 6.16 434.42 7.11L434.42 7.11Q434.42 8.44 434.36 9.97Q434.31 11.51 434.31 11.65L434.31 11.65Q434.31 12.28 434.53 12.61Q434.74 12.94 434.99 12.98Q435.25 13.02 435.46 13.07Q435.68 13.12 435.68 13.26L435.68 13.26Q435.68 13.41 435.63 13.45Q435.58 13.50 435.46 13.50L435.46 13.50Q435.36 13.50 435.02 13.48Q434.67 13.47 433.96 13.47L433.96 13.47Q433.83 13.47 433.44 13.48Q433.05 13.50 432.77 13.50L432.77 13.50Q432.46 13.50 432.46 13.27L432.46 13.27Q432.46 13.15 432.64 13.11Q432.82 13.08 433.09 12.89Q433.36 12.71 433.50 12.21L433.50 12.21Q433.58 11.89 433.71 9.60Q433.83 7.32 433.83 6.45L433.83 6.45Q433.83 5.25 433.50 4.65Q433.16 4.06 432.40 3.98L432.40 3.98Q432.22 3.96 432.22 3.77ZM450.73 8.90L450.73 8.90Q450.73 7.38 451.32 6.16Q451.91 4.94 453.13 4.19Q454.36 3.44 456.04 3.44L456.04 3.44Q456.89 3.44 457.76 3.70Q458.63 3.95 459.14 4.20L459.14 4.20L459.66 4.47Q459.70 4.47 459.80 4.40Q459.90 4.33 459.96 4.33L459.96 4.33Q460.03 4.33 460.10 4.38Q460.17 4.44 460.17 4.55L460.17 4.55Q460.18 4.96 460.23 5.41Q460.28 5.87 460.32 6.16Q460.36 6.45 460.36 6.51L460.36 6.51Q460.36 6.76 460.19 6.76L460.19 6.76Q460.07 6.76 459.96 6.57L459.96 6.57Q458.60 4.02 456.04 4.02L456.04 4.02Q454.29 4.02 453.17 5.14Q452.05 6.26 452.05 8.06L452.05 8.06Q452.05 9.06 452.31 9.93Q452.56 10.79 453.09 11.51Q453.61 12.24 454.54 12.66Q455.46 13.08 456.69 13.08L456.69 13.08Q458.71 13.08 460.08 10.98L460.08 10.98Q460.14 10.88 460.29 10.88L460.29 10.88Q460.42 10.88 460.42 11.07L460.42 11.07Q460.42 11.23 460.37 11.49Q460.32 11.75 460.25 12.06Q460.18 12.38 460.17 12.45L460.17 12.45Q460.14 12.60 459.94 12.70L459.94 12.70Q459.19 13.06 458.76 13.24Q458.33 13.43 457.67 13.57Q457.02 13.72 456.33 13.72L456.33 13.72Q455.11 13.72 454.13 13.43Q453.15 13.13 452.53 12.66Q451.91 12.18 451.49 11.54Q451.07 10.91 450.90 10.25Q450.73 9.60 450.73 8.90ZM468.69 3.65L468.69 3.65Q468.69 3.46 469.08 3.46L469.08 3.46Q469.14 3.46 469.27 3.47Q469.39 3.49 469.46 3.49L469.46 3.49Q469.50 3.49 470.78 3.52Q472.05 3.56 472.88 3.56L472.88 3.56Q473.17 3.56 474.33 3.53Q475.48 3.50 475.68 3.50L475.68 3.50Q475.94 3.50 475.94 3.82L475.94 3.82Q475.94 3.91 475.86 4.38Q475.78 4.84 475.78 5.25L475.78 5.25Q475.78 5.38 475.71 5.47Q475.64 5.56 475.55 5.56L475.55 5.56Q475.34 5.56 475.34 5.26L475.34 5.26Q475.34 4.89 475.10 4.58Q474.87 4.27 474.52 4.26L474.52 4.26Q473.26 4.16 472.58 4.16L472.58 4.16L472.22 4.16Q471.49 4.16 471.37 4.26Q471.25 4.37 471.23 5.01L471.23 5.01Q471.17 6.02 471.17 7.35L471.17 7.35Q471.17 8.05 471.44 8.06L471.44 8.06L471.79 8.06L472.37 8.06L472.81 8.06Q473.65 8.06 473.93 8.01Q474.21 7.95 474.43 7.80L474.43 7.80Q474.70 7.62 474.75 7.28L474.75 7.28Q474.80 7.04 474.95 7.04L474.95 7.04Q475.08 7.04 475.10 7.08Q475.13 7.13 475.13 7.27L475.13 7.27Q475.13 7.36 475.08 7.91Q475.02 8.46 475.02 8.74L475.02 8.74Q475.02 9.00 475.04 9.24Q475.06 9.48 475.06 9.59L475.06 9.59Q475.06 9.94 474.96 9.94L474.96 9.94Q474.75 9.94 474.66 9.60L474.66 9.60Q474.46 9.02 474.31 8.92L474.31 8.92Q474.01 8.72 472.96 8.72L472.96 8.72Q472.54 8.72 472.28 8.72Q472.02 8.72 471.95 8.71Q471.87 8.71 471.82 8.71Q471.77 8.71 471.73 8.71L471.73 8.71Q471.16 8.71 471.16 8.97L471.16 8.97Q471.16 9.38 471.14 9.99Q471.13 10.60 471.13 10.99L471.13 10.99L471.13 11.55Q471.13 12.56 471.46 12.66L471.46 12.66Q471.81 12.77 472.07 12.77L472.07 12.77Q473.12 12.77 473.91 12.67Q474.70 12.57 475.10 12.42Q475.50 12.28 475.76 12.10Q476.03 11.93 476.11 11.78Q476.18 11.63 476.26 11.54Q476.34 11.44 476.42 11.44L476.42 11.44Q476.59 11.44 476.59 11.68L476.59 11.68Q476.59 12.28 475.99 12.89Q475.38 13.51 474.94 13.51L474.94 13.51Q473.93 13.51 472.66 13.44Q471.39 13.37 471.09 13.37L471.09 13.37Q470.69 13.37 470.11 13.43Q469.52 13.50 469.18 13.50L469.18 13.50Q468.89 13.50 468.89 13.36L468.89 13.36Q468.89 13.23 468.89 13.19Q468.89 13.15 468.93 13.12Q468.97 13.09 469.02 13.08Q469.07 13.08 469.20 13.03Q469.34 12.99 469.49 12.92L469.49 12.92Q469.83 12.75 469.93 12.26Q470.04 11.77 470.04 10.21L470.04 10.21L470.04 8.47Q470.04 8.09 470.06 7.29Q470.08 6.50 470.08 6.05L470.08 6.05Q470.08 5.67 470.05 4.77L470.05 4.77Q470.04 4.37 469.70 4.14Q469.36 3.92 468.92 3.91L468.92 3.91Q468.69 3.91 468.69 3.65Z"></path></g></svg>