<svg data-v-fde0c5aa="" xmlns="http://www.w3.org/2000/svg" viewBox="0 0 300 300" class="font"><!----><defs data-v-fde0c5aa=""><!----></defs><rect data-v-fde0c5aa="" fill="#E1F3FC" x="0" y="0" width="300px" height="300px" class="logo-background-square"></rect><defs data-v-fde0c5aa=""><linearGradient data-v-fde0c5aa="" gradientTransform="rotate(25)" id="b7213254-ff14-44b6-86f7-9c8e736a5ba5" x1="0%" y1="0%" x2="100%" y2="0%"><stop data-v-fde0c5aa="" offset="0%" stop-color="#0076DD" stop-opacity="1"></stop><stop data-v-fde0c5aa="" offset="100%" stop-color="#00CDE9" stop-opacity="1"></stop></linearGradient></defs><g data-v-fde0c5aa="" id="989fad67-a490-4afd-865b-511deb3b6d71" fill="url(#b7213254-ff14-44b6-86f7-9c8e736a5ba5)" transform="matrix(2.9162247200465368,0,0,2.9162247200465368,35.74231179748691,125.50371207349623)"><path d="M3.63 13.30C6.33 13.30 8.53 11.12 8.53 8.41C8.53 5.71 6.33 3.50 3.63 3.50L1.83 3.50L1.79 3.50C1.61 3.50 1.46 3.65 1.46 3.84L1.46 12.96C1.46 13.15 1.60 13.29 1.76 13.30L1.82 13.30ZM2.14 12.61L2.14 4.19L3.63 4.19C5.95 4.20 7.84 6.08 7.84 8.41C7.84 10.74 5.95 12.61 3.63 12.61ZM15.53 6.44C15.34 6.44 15.19 6.58 15.19 6.78L15.19 7.78C14.60 6.97 13.66 6.44 12.61 6.44C10.81 6.44 9.37 7.99 9.37 9.87C9.37 11.75 10.81 13.30 12.61 13.30C13.66 13.30 14.60 12.75 15.19 11.94L15.19 12.96C15.19 13.15 15.34 13.30 15.53 13.30C15.71 13.30 15.86 13.15 15.86 12.96L15.86 6.78C15.86 6.58 15.71 6.44 15.53 6.44ZM12.61 12.63C11.21 12.63 10.04 11.41 10.04 9.87C10.04 8.33 11.21 7.10 12.61 7.10C14.03 7.10 15.19 8.33 15.19 9.87C15.19 11.41 14.03 12.63 12.61 12.63ZM20.76 13.27C20.78 13.29 20.78 13.29 20.79 13.29C20.83 13.30 20.86 13.30 20.90 13.30C20.97 13.30 21.07 13.27 21.13 13.20C21.17 13.15 21.20 13.09 21.21 13.03L23.77 6.96C23.84 6.79 23.77 6.59 23.60 6.52C23.44 6.45 23.23 6.54 23.17 6.71L20.89 12.11L18.61 6.71C18.55 6.54 18.34 6.45 18.17 6.52C18.02 6.59 17.93 6.79 18.00 6.96L20.58 13.09C20.61 13.16 20.65 13.20 20.69 13.24C20.72 13.26 20.73 13.27 20.76 13.27ZM26.66 12.96L26.66 12.96C26.66 13.15 26.81 13.30 26.99 13.30L26.99 13.30C27.19 13.30 27.34 13.15 27.34 12.96L27.34 6.78L27.34 6.78C27.34 6.58 27.19 6.44 26.99 6.44L26.99 6.44C26.81 6.44 26.66 6.58 26.66 6.78ZM26.66 4.86L26.66 4.86C26.66 5.05 26.81 5.22 26.99 5.22L26.99 5.22C27.19 5.22 27.34 5.05 27.34 4.86L27.34 4.54L27.34 4.54C27.34 4.35 27.19 4.20 26.99 4.20L26.99 4.20C26.81 4.20 26.66 4.35 26.66 4.54ZM36.06 12.96C36.06 13.15 36.22 13.30 36.41 13.30C36.60 13.30 36.75 13.15 36.75 12.96L36.75 9.88L36.75 9.74L36.75 3.84C36.75 3.65 36.60 3.50 36.41 3.50C36.22 3.50 36.06 3.65 36.06 3.84L36.06 7.78C35.46 6.97 34.51 6.44 33.43 6.44C31.58 6.44 30.11 7.98 30.11 9.88C30.11 11.76 31.58 13.30 33.43 13.30C34.51 13.30 35.46 12.78 36.06 11.97ZM33.43 12.61C31.99 12.61 30.80 11.40 30.80 9.88C30.80 8.36 31.99 7.13 33.43 7.13C34.85 7.13 36.01 8.30 36.06 9.77L36.06 10.00C36.01 11.45 34.85 12.61 33.43 12.61ZM44.17 12.96C44.17 13.15 44.31 13.29 44.48 13.30L44.51 13.30L44.55 13.30L49.55 13.30C49.74 13.30 49.88 13.15 49.88 12.96C49.88 12.77 49.74 12.61 49.55 12.61L44.86 12.61L44.86 8.75L48.96 8.75C49.14 8.75 49.29 8.60 49.29 8.41C49.29 8.22 49.14 8.06 48.96 8.06L44.86 8.06L44.86 4.19L49.55 4.19C49.74 4.19 49.88 4.03 49.88 3.84C49.88 3.65 49.74 3.50 49.55 3.50L44.53 3.50L44.51 3.50C44.32 3.50 44.17 3.65 44.17 3.84L44.17 12.96ZM52.12 13.23C52.19 13.27 52.26 13.30 52.32 13.30C52.42 13.30 52.53 13.26 52.58 13.16L54.57 10.46L56.55 13.16C56.60 13.26 56.71 13.30 56.83 13.30C56.88 13.30 56.95 13.27 56.99 13.23C57.16 13.12 57.19 12.92 57.09 12.77L54.98 9.90L57.09 7.01C57.19 6.85 57.16 6.65 56.99 6.54C56.87 6.44 56.66 6.47 56.55 6.62L54.57 9.32L52.58 6.62C52.49 6.47 52.26 6.44 52.12 6.54C51.98 6.65 51.95 6.85 52.05 7.01L54.15 9.90L52.05 12.77C51.95 12.92 51.98 13.12 52.12 13.23ZM62.85 13.30L62.85 13.30C62.85 13.30 62.85 13.30 62.85 13.30L62.85 13.30C63.66 13.30 64.43 13.02 65.00 12.57L65.00 12.57C65.17 12.45 65.20 12.24 65.07 12.08L65.07 12.08C64.96 11.96 64.76 11.91 64.61 12.03L64.61 12.03L64.61 12.03C64.12 12.40 63.50 12.63 62.85 12.63L62.85 12.63C61.25 12.63 59.99 11.40 59.99 9.86L59.99 9.86C59.99 8.34 61.25 7.10 62.85 7.10L62.85 7.10C63.50 7.10 64.12 7.32 64.61 7.71L64.61 7.71C64.76 7.83 64.96 7.78 65.07 7.66L65.07 7.66C65.20 7.50 65.17 7.29 65.03 7.20L65.03 7.20C64.43 6.72 63.66 6.44 62.85 6.44L62.85 6.44C60.89 6.44 59.32 7.95 59.32 9.86L59.32 9.86C59.32 11.79 60.89 13.30 62.85 13.30ZM70.43 13.30C71.60 13.30 72.62 12.68 73.21 11.75C73.30 11.58 73.25 11.38 73.09 11.27C72.95 11.19 72.74 11.21 72.65 11.38C72.18 12.15 71.34 12.63 70.43 12.63C69.02 12.63 67.84 11.49 67.77 10.00L73.40 10.00C73.58 10.00 73.74 9.87 73.74 9.69L73.74 9.65L73.74 9.63C73.60 7.84 72.20 6.44 70.43 6.44C68.59 6.44 67.10 7.98 67.10 9.88C67.10 11.76 68.59 13.30 70.43 13.30ZM70.43 7.11C71.69 7.11 72.79 8.05 73.01 9.34L67.82 9.34C68.07 8.04 69.15 7.11 70.43 7.11ZM76.22 12.96L76.22 12.96C76.22 13.15 76.37 13.30 76.55 13.30L76.55 13.30C76.75 13.30 76.90 13.15 76.90 12.96L76.90 3.84L76.90 3.84C76.90 3.65 76.75 3.50 76.55 3.50L76.55 3.50C76.37 3.50 76.22 3.65 76.22 3.84L76.22 12.96Z"></path></g><!----><!----></svg>